<svg width="310" height="76" viewBox="0 0 310 76" fill="none" xmlns="http://www.w3.org/2000/svg">
<rect width="24" height="24" transform="translate(26 26)" fill="#BDBDBD"/>
<path d="M34.4261 33.7727V42.5H33.4205V33.7727H34.4261ZM36.0465 40.7102V39.8409L39.8817 33.7727H40.5124V35.1193H40.0863L37.1886 39.7045V39.7727H42.3533V40.7102H36.0465ZM40.1545 42.5V40.446V40.0412V33.7727H41.1602V42.5H40.1545Z" fill="#242424"/>
<rect width="24" height="24" transform="translate(52 26)" fill="#BDBDBD"/>
<path d="M60.4261 33.7727V42.5H59.4205V33.7727H60.4261ZM65.1999 42.6193C64.6374 42.6193 64.136 42.5227 63.6957 42.3295C63.2582 42.1364 62.9102 41.8679 62.6516 41.5241C62.396 41.1776 62.2567 40.7756 62.234 40.3182H63.3079C63.3306 40.5994 63.4272 40.8423 63.5977 41.0469C63.7681 41.2486 63.9911 41.4048 64.2667 41.5156C64.5423 41.6264 64.8477 41.6818 65.1829 41.6818C65.5579 41.6818 65.8903 41.6165 66.18 41.4858C66.4698 41.3551 66.6971 41.1733 66.8619 40.9403C67.0266 40.7074 67.109 40.4375 67.109 40.1307C67.109 39.8097 67.0295 39.527 66.8704 39.2827C66.7113 39.0355 66.4783 38.8423 66.1715 38.7031C65.8647 38.5639 65.4897 38.4943 65.0465 38.4943H64.3477V37.5568H65.0465C65.3931 37.5568 65.6971 37.4943 65.9585 37.3693C66.2227 37.2443 66.4286 37.0682 66.5763 36.8409C66.7269 36.6136 66.8022 36.3466 66.8022 36.0398C66.8022 35.7443 66.7369 35.4872 66.6062 35.2685C66.4755 35.0497 66.2908 34.8793 66.0522 34.7571C65.8164 34.6349 65.538 34.5739 65.217 34.5739C64.9158 34.5739 64.6317 34.6293 64.3647 34.7401C64.1005 34.848 63.8846 35.0057 63.717 35.2131C63.5494 35.4176 63.4585 35.6648 63.4442 35.9545H62.4215C62.4386 35.4972 62.5763 35.0966 62.8349 34.7528C63.0934 34.4062 63.4315 34.1364 63.8491 33.9432C64.2695 33.75 64.7312 33.6534 65.234 33.6534C65.7738 33.6534 66.2369 33.7628 66.6232 33.9815C67.0096 34.1974 67.3065 34.483 67.5138 34.8381C67.7212 35.1932 67.8249 35.5767 67.8249 35.9886C67.8249 36.4801 67.6957 36.8991 67.4371 37.2457C67.1815 37.5923 66.8335 37.8324 66.3931 37.9659V38.0341C66.9442 38.125 67.3746 38.3594 67.6843 38.7372C67.994 39.1122 68.1488 39.5767 68.1488 40.1307C68.1488 40.6051 68.0195 41.0312 67.761 41.4091C67.5053 41.7841 67.1559 42.0795 66.7127 42.2955C66.2695 42.5114 65.7653 42.6193 65.1999 42.6193Z" fill="#242424"/>
<rect width="24" height="24" transform="translate(78 26)" fill="#BDBDBD"/>
<path d="M86.4261 33.7727V42.5H85.4205V33.7727H86.4261ZM88.2511 42.5V41.733L91.1317 38.5795C91.4698 38.2102 91.7482 37.8892 91.967 37.6165C92.1857 37.3409 92.3477 37.0824 92.4528 36.8409C92.5607 36.5966 92.6147 36.3409 92.6147 36.0739C92.6147 35.767 92.5408 35.5014 92.3931 35.277C92.2482 35.0526 92.0494 34.8793 91.7965 34.7571C91.5437 34.6349 91.2596 34.5739 90.9442 34.5739C90.609 34.5739 90.3164 34.6435 90.0664 34.7827C89.8192 34.919 89.6275 35.1108 89.4911 35.358C89.3576 35.6051 89.2908 35.8949 89.2908 36.2273H88.2852C88.2852 35.7159 88.4031 35.267 88.6388 34.8807C88.8746 34.4943 89.1957 34.1932 89.6019 33.9773C90.011 33.7614 90.4698 33.6534 90.9783 33.6534C91.4897 33.6534 91.9428 33.7614 92.3377 33.9773C92.7326 34.1932 93.0423 34.4844 93.2667 34.8509C93.4911 35.2173 93.6033 35.625 93.6033 36.0739C93.6033 36.3949 93.5451 36.7088 93.4286 37.0156C93.315 37.3196 93.1161 37.6591 92.832 38.0341C92.5508 38.4062 92.1602 38.8608 91.6602 39.3977L89.6999 41.4943V41.5625H93.7567V42.5H88.2511Z" fill="#242424"/>
<rect width="24" height="24" transform="translate(104 26)" fill="#BDBDBD"/>
<path d="M113.426 33.7727V42.5H112.42V33.7727H113.426ZM118.319 33.7727V42.5H117.262V34.8807H117.211L115.081 36.2955V35.2216L117.262 33.7727H118.319Z" fill="#242424"/>
<rect width="24" height="24" transform="translate(130 26)" fill="#BDBDBD"/>
<path d="M138.426 33.7727V42.5H137.42V33.7727H138.426ZM143.098 42.6193C142.456 42.6193 141.909 42.4446 141.457 42.0952C141.005 41.7429 140.66 41.233 140.422 40.5653C140.183 39.8949 140.064 39.0852 140.064 38.1364C140.064 37.1932 140.183 36.3878 140.422 35.7202C140.663 35.0497 141.01 34.5384 141.461 34.1861C141.916 33.831 142.461 33.6534 143.098 33.6534C143.734 33.6534 144.278 33.831 144.73 34.1861C145.184 34.5384 145.531 35.0497 145.77 35.7202C146.011 36.3878 146.132 37.1932 146.132 38.1364C146.132 39.0852 146.012 39.8949 145.774 40.5653C145.535 41.233 145.19 41.7429 144.738 42.0952C144.287 42.4446 143.74 42.6193 143.098 42.6193ZM143.098 41.6818C143.734 41.6818 144.228 41.375 144.581 40.7614C144.933 40.1477 145.109 39.2727 145.109 38.1364C145.109 37.3807 145.028 36.7372 144.866 36.206C144.707 35.6747 144.477 35.2699 144.176 34.9915C143.877 34.7131 143.518 34.5739 143.098 34.5739C142.467 34.5739 141.974 34.8849 141.619 35.5071C141.264 36.1264 141.086 37.0028 141.086 38.1364C141.086 38.892 141.166 39.5341 141.325 40.0625C141.484 40.5909 141.713 40.9929 142.011 41.2685C142.312 41.544 142.674 41.6818 143.098 41.6818Z" fill="#242424"/>
<rect width="24" height="24" transform="translate(156 26)" fill="#BDBDBD"/>
<path d="M162.92 42.5V35.9545H163.892V36.9432H163.96C164.08 36.6193 164.295 36.3565 164.608 36.1548C164.92 35.9531 165.273 35.8523 165.665 35.8523C165.739 35.8523 165.831 35.8537 165.942 35.8565C166.053 35.8594 166.136 35.8636 166.193 35.8693V36.892C166.159 36.8835 166.081 36.8707 165.959 36.8537C165.839 36.8338 165.713 36.8239 165.58 36.8239C165.261 36.8239 164.977 36.8906 164.727 37.0241C164.48 37.1548 164.284 37.3366 164.139 37.5696C163.997 37.7997 163.926 38.0625 163.926 38.358V42.5H162.92ZM170.215 42.6193C169.573 42.6193 169.026 42.4446 168.574 42.0952C168.123 41.7429 167.777 41.233 167.539 40.5653C167.3 39.8949 167.181 39.0852 167.181 38.1364C167.181 37.1932 167.3 36.3878 167.539 35.7202C167.78 35.0497 168.127 34.5384 168.578 34.1861C169.033 33.831 169.578 33.6534 170.215 33.6534C170.851 33.6534 171.395 33.831 171.847 34.1861C172.301 34.5384 172.648 35.0497 172.887 35.7202C173.128 36.3878 173.249 37.1932 173.249 38.1364C173.249 39.0852 173.13 39.8949 172.891 40.5653C172.652 41.233 172.307 41.7429 171.855 42.0952C171.404 42.4446 170.857 42.6193 170.215 42.6193ZM170.215 41.6818C170.851 41.6818 171.346 41.375 171.698 40.7614C172.05 40.1477 172.226 39.2727 172.226 38.1364C172.226 37.3807 172.145 36.7372 171.983 36.206C171.824 35.6747 171.594 35.2699 171.293 34.9915C170.995 34.7131 170.635 34.5739 170.215 34.5739C169.584 34.5739 169.091 34.8849 168.736 35.5071C168.381 36.1264 168.203 37.0028 168.203 38.1364C168.203 38.892 168.283 39.5341 168.442 40.0625C168.601 40.5909 168.83 40.9929 169.128 41.2685C169.429 41.544 169.792 41.6818 170.215 41.6818Z" fill="#242424"/>
<rect width="24" height="24" transform="translate(182 26)" fill="#BDBDBD"/>
<path d="M189.42 42.5V35.9545H190.392V36.9432H190.46C190.58 36.6193 190.795 36.3565 191.108 36.1548C191.42 35.9531 191.773 35.8523 192.165 35.8523C192.239 35.8523 192.331 35.8537 192.442 35.8565C192.553 35.8594 192.636 35.8636 192.693 35.8693V36.892C192.659 36.8835 192.581 36.8707 192.459 36.8537C192.339 36.8338 192.213 36.8239 192.08 36.8239C191.761 36.8239 191.477 36.8906 191.227 37.0241C190.98 37.1548 190.784 37.3366 190.639 37.5696C190.497 37.7997 190.426 38.0625 190.426 38.358V42.5H189.42ZM196.936 33.7727V42.5H195.88V34.8807H195.828L193.698 36.2955V35.2216L195.88 33.7727H196.936Z" fill="#242424"/>
<rect width="24" height="24" transform="translate(208 26)" fill="#BDBDBD"/>
<path d="M214.92 42.5V35.9545H215.892V36.9432H215.96C216.08 36.6193 216.295 36.3565 216.608 36.1548C216.92 35.9531 217.273 35.8523 217.665 35.8523C217.739 35.8523 217.831 35.8537 217.942 35.8565C218.053 35.8594 218.136 35.8636 218.193 35.8693V36.892C218.159 36.8835 218.081 36.8707 217.959 36.8537C217.839 36.8338 217.713 36.8239 217.58 36.8239C217.261 36.8239 216.977 36.8906 216.727 37.0241C216.48 37.1548 216.284 37.3366 216.139 37.5696C215.997 37.7997 215.926 38.0625 215.926 38.358V42.5H214.92ZM219.368 42.5V41.733L222.249 38.5795C222.587 38.2102 222.865 37.8892 223.084 37.6165C223.303 37.3409 223.465 37.0824 223.57 36.8409C223.678 36.5966 223.732 36.3409 223.732 36.0739C223.732 35.767 223.658 35.5014 223.51 35.277C223.365 35.0526 223.167 34.8793 222.914 34.7571C222.661 34.6349 222.377 34.5739 222.061 34.5739C221.726 34.5739 221.434 34.6435 221.184 34.7827C220.936 34.919 220.745 35.1108 220.608 35.358C220.475 35.6051 220.408 35.8949 220.408 36.2273H219.402C219.402 35.7159 219.52 35.267 219.756 34.8807C219.992 34.4943 220.313 34.1932 220.719 33.9773C221.128 33.7614 221.587 33.6534 222.096 33.6534C222.607 33.6534 223.06 33.7614 223.455 33.9773C223.85 34.1932 224.159 34.4844 224.384 34.8509C224.608 35.2173 224.721 35.625 224.721 36.0739C224.721 36.3949 224.662 36.7088 224.546 37.0156C224.432 37.3196 224.233 37.6591 223.949 38.0341C223.668 38.4062 223.277 38.8608 222.777 39.3977L220.817 41.4943V41.5625H224.874V42.5H219.368Z" fill="#242424"/>
<rect width="24" height="24" transform="translate(234 26)" fill="#BDBDBD"/>
<path d="M240.42 42.5V35.9545H241.392V36.9432H241.46C241.58 36.6193 241.795 36.3565 242.108 36.1548C242.42 35.9531 242.773 35.8523 243.165 35.8523C243.239 35.8523 243.331 35.8537 243.442 35.8565C243.553 35.8594 243.636 35.8636 243.693 35.8693V36.892C243.659 36.8835 243.581 36.8707 243.459 36.8537C243.339 36.8338 243.213 36.8239 243.08 36.8239C242.761 36.8239 242.477 36.8906 242.227 37.0241C241.98 37.1548 241.784 37.3366 241.639 37.5696C241.497 37.7997 241.426 38.0625 241.426 38.358V42.5H240.42ZM247.817 42.6193C247.255 42.6193 246.753 42.5227 246.313 42.3295C245.875 42.1364 245.527 41.8679 245.269 41.5241C245.013 41.1776 244.874 40.7756 244.851 40.3182H245.925C245.948 40.5994 246.044 40.8423 246.215 41.0469C246.385 41.2486 246.608 41.4048 246.884 41.5156C247.159 41.6264 247.465 41.6818 247.8 41.6818C248.175 41.6818 248.507 41.6165 248.797 41.4858C249.087 41.3551 249.314 41.1733 249.479 40.9403C249.644 40.7074 249.726 40.4375 249.726 40.1307C249.726 39.8097 249.647 39.527 249.488 39.2827C249.328 39.0355 249.096 38.8423 248.789 38.7031C248.482 38.5639 248.107 38.4943 247.664 38.4943H246.965V37.5568H247.664C248.01 37.5568 248.314 37.4943 248.576 37.3693C248.84 37.2443 249.046 37.0682 249.194 36.8409C249.344 36.6136 249.419 36.3466 249.419 36.0398C249.419 35.7443 249.354 35.4872 249.223 35.2685C249.093 35.0497 248.908 34.8793 248.669 34.7571C248.434 34.6349 248.155 34.5739 247.834 34.5739C247.533 34.5739 247.249 34.6293 246.982 34.7401C246.718 34.848 246.502 35.0057 246.334 35.2131C246.167 35.4176 246.076 35.6648 246.061 35.9545H245.039C245.056 35.4972 245.194 35.0966 245.452 34.7528C245.711 34.4062 246.049 34.1364 246.466 33.9432C246.887 33.75 247.348 33.6534 247.851 33.6534C248.391 33.6534 248.854 33.7628 249.24 33.9815C249.627 34.1974 249.924 34.483 250.131 34.8381C250.338 35.1932 250.442 35.5767 250.442 35.9886C250.442 36.4801 250.313 36.8991 250.054 37.2457C249.799 37.5923 249.451 37.8324 249.01 37.9659V38.0341C249.561 38.125 249.992 38.3594 250.301 38.7372C250.611 39.1122 250.766 39.5767 250.766 40.1307C250.766 40.6051 250.637 41.0312 250.378 41.4091C250.123 41.7841 249.773 42.0795 249.33 42.2955C248.887 42.5114 248.382 42.6193 247.817 42.6193Z" fill="#242424"/>
<rect width="24" height="24" transform="translate(260 26)" fill="#BDBDBD"/>
<path d="M266.42 42.5V35.9545H267.392V36.9432H267.46C267.58 36.6193 267.795 36.3565 268.108 36.1548C268.42 35.9531 268.773 35.8523 269.165 35.8523C269.239 35.8523 269.331 35.8537 269.442 35.8565C269.553 35.8594 269.636 35.8636 269.693 35.8693V36.892C269.659 36.8835 269.581 36.8707 269.459 36.8537C269.339 36.8338 269.213 36.8239 269.08 36.8239C268.761 36.8239 268.477 36.8906 268.227 37.0241C267.98 37.1548 267.784 37.3366 267.639 37.5696C267.497 37.7997 267.426 38.0625 267.426 38.358V42.5H266.42ZM270.664 40.7102V39.8409L274.499 33.7727H275.13V35.1193H274.703L271.806 39.7045V39.7727H276.971V40.7102H270.664ZM274.772 42.5V40.446V40.0412V33.7727H275.777V42.5H274.772Z" fill="#242424"/>
<rect width="24" height="24" fill="#BDBDBD"/>
<rect width="4" height="24" transform="translate(26)" fill="url(#paint0_radial_101_254)"/>
<rect width="20" height="24" transform="translate(30)" fill="url(#paint1_linear_101_254)"/>
<rect width="24" height="24" transform="translate(26)" fill="#BDBDBD"/>
<path d="M32.4261 7.77273V16.5H31.4205V7.77273H32.4261ZM34.0465 14.7102V13.8409L37.8817 7.77273H38.5124V9.11932H38.0863L35.1886 13.7045V13.7727H40.3533V14.7102H34.0465ZM38.1545 16.5V14.446V14.0412V7.77273H39.1602V16.5H38.1545ZM44.8139 9.95455V10.8068H41.4219V9.95455H44.8139ZM42.4105 8.38636H43.4162V14.625C43.4162 14.9091 43.4574 15.1222 43.5398 15.2642C43.625 15.4034 43.733 15.4972 43.8636 15.5455C43.9972 15.5909 44.1378 15.6136 44.2855 15.6136C44.3963 15.6136 44.4872 15.608 44.5582 15.5966C44.6293 15.5824 44.6861 15.571 44.7287 15.5625L44.9332 16.4659C44.8651 16.4915 44.7699 16.517 44.6477 16.5426C44.5256 16.571 44.3707 16.5852 44.1832 16.5852C43.8991 16.5852 43.6207 16.5241 43.348 16.402C43.0781 16.2798 42.8537 16.0938 42.6747 15.8438C42.4986 15.5938 42.4105 15.2784 42.4105 14.8977V8.38636Z" fill="#242424"/>
<rect width="24" height="24" transform="translate(52)" fill="#BDBDBD"/>
<path d="M58.4261 7.77273V16.5H57.4205V7.77273H58.4261ZM63.1999 16.6193C62.6374 16.6193 62.136 16.5227 61.6957 16.3295C61.2582 16.1364 60.9102 15.8679 60.6516 15.5241C60.396 15.1776 60.2567 14.7756 60.234 14.3182H61.3079C61.3306 14.5994 61.4272 14.8423 61.5977 15.0469C61.7681 15.2486 61.9911 15.4048 62.2667 15.5156C62.5423 15.6264 62.8477 15.6818 63.1829 15.6818C63.5579 15.6818 63.8903 15.6165 64.18 15.4858C64.4698 15.3551 64.6971 15.1733 64.8619 14.9403C65.0266 14.7074 65.109 14.4375 65.109 14.1307C65.109 13.8097 65.0295 13.527 64.8704 13.2827C64.7113 13.0355 64.4783 12.8423 64.1715 12.7031C63.8647 12.5639 63.4897 12.4943 63.0465 12.4943H62.3477V11.5568H63.0465C63.3931 11.5568 63.6971 11.4943 63.9585 11.3693C64.2227 11.2443 64.4286 11.0682 64.5763 10.8409C64.7269 10.6136 64.8022 10.3466 64.8022 10.0398C64.8022 9.74432 64.7369 9.48722 64.6062 9.26847C64.4755 9.04972 64.2908 8.87926 64.0522 8.7571C63.8164 8.63494 63.538 8.57386 63.217 8.57386C62.9158 8.57386 62.6317 8.62926 62.3647 8.74006C62.1005 8.84801 61.8846 9.00568 61.717 9.21307C61.5494 9.41761 61.4585 9.66477 61.4442 9.95455H60.4215C60.4386 9.49716 60.5763 9.09659 60.8349 8.75284C61.0934 8.40625 61.4315 8.13636 61.8491 7.94318C62.2695 7.75 62.7312 7.65341 63.234 7.65341C63.7738 7.65341 64.2369 7.76278 64.6232 7.98153C65.0096 8.19744 65.3065 8.48295 65.5138 8.83807C65.7212 9.19318 65.8249 9.5767 65.8249 9.98864C65.8249 10.4801 65.6957 10.8991 65.4371 11.2457C65.1815 11.5923 64.8335 11.8324 64.3931 11.9659V12.0341C64.9442 12.125 65.3746 12.3594 65.6843 12.7372C65.994 13.1122 66.1488 13.5767 66.1488 14.1307C66.1488 14.6051 66.0195 15.0312 65.761 15.4091C65.5053 15.7841 65.1559 16.0795 64.7127 16.2955C64.2695 16.5114 63.7653 16.6193 63.1999 16.6193ZM70.7553 9.95455V10.8068H67.3633V9.95455H70.7553ZM68.3519 8.38636H69.3576V14.625C69.3576 14.9091 69.3988 15.1222 69.4812 15.2642C69.5664 15.4034 69.6744 15.4972 69.805 15.5455C69.9386 15.5909 70.0792 15.6136 70.2269 15.6136C70.3377 15.6136 70.4286 15.608 70.4996 15.5966C70.5707 15.5824 70.6275 15.571 70.6701 15.5625L70.8746 16.4659C70.8065 16.4915 70.7113 16.517 70.5891 16.5426C70.467 16.571 70.3121 16.5852 70.1246 16.5852C69.8406 16.5852 69.5621 16.5241 69.2894 16.402C69.0195 16.2798 68.7951 16.0938 68.6161 15.8438C68.44 15.5938 68.3519 15.2784 68.3519 14.8977V8.38636Z" fill="#242424"/>
<rect width="24" height="24" transform="translate(78)" fill="#BDBDBD"/>
<path d="M84.4261 7.77273V16.5H83.4205V7.77273H84.4261ZM86.2511 16.5V15.733L89.1317 12.5795C89.4698 12.2102 89.7482 11.8892 89.967 11.6165C90.1857 11.3409 90.3477 11.0824 90.4528 10.8409C90.5607 10.5966 90.6147 10.3409 90.6147 10.0739C90.6147 9.76705 90.5408 9.50142 90.3931 9.27699C90.2482 9.05256 90.0494 8.87926 89.7965 8.7571C89.5437 8.63494 89.2596 8.57386 88.9442 8.57386C88.609 8.57386 88.3164 8.64347 88.0664 8.78267C87.8192 8.91903 87.6275 9.1108 87.4911 9.35795C87.3576 9.60511 87.2908 9.89489 87.2908 10.2273H86.2852C86.2852 9.71591 86.4031 9.26705 86.6388 8.88068C86.8746 8.49432 87.1957 8.19318 87.6019 7.97727C88.011 7.76136 88.4698 7.65341 88.9783 7.65341C89.4897 7.65341 89.9428 7.76136 90.3377 7.97727C90.7326 8.19318 91.0423 8.48437 91.2667 8.85085C91.4911 9.21733 91.6033 9.625 91.6033 10.0739C91.6033 10.3949 91.5451 10.7088 91.4286 11.0156C91.315 11.3196 91.1161 11.6591 90.832 12.0341C90.5508 12.4062 90.1602 12.8608 89.6602 13.3977L87.6999 15.4943V15.5625H91.7567V16.5H86.2511ZM96.3803 9.95455V10.8068H92.9883V9.95455H96.3803ZM93.9769 8.38636H94.9826V14.625C94.9826 14.9091 95.0238 15.1222 95.1062 15.2642C95.1914 15.4034 95.2994 15.4972 95.43 15.5455C95.5636 15.5909 95.7042 15.6136 95.8519 15.6136C95.9627 15.6136 96.0536 15.608 96.1246 15.5966C96.1957 15.5824 96.2525 15.571 96.2951 15.5625L96.4996 16.4659C96.4315 16.4915 96.3363 16.517 96.2141 16.5426C96.092 16.571 95.9371 16.5852 95.7496 16.5852C95.4656 16.5852 95.1871 16.5241 94.9144 16.402C94.6445 16.2798 94.4201 16.0938 94.2411 15.8438C94.065 15.5938 93.9769 15.2784 93.9769 14.8977V8.38636Z" fill="#242424"/>
<rect width="24" height="24" transform="translate(104)" fill="#BDBDBD"/>
<path d="M111.426 7.77273V16.5H110.42V7.77273H111.426ZM116.319 7.77273V16.5H115.262V8.88068H115.211L113.081 10.2955V9.22159L115.262 7.77273H116.319ZM121.693 9.95455V10.8068H118.301V9.95455H121.693ZM119.289 8.38636H120.295V14.625C120.295 14.9091 120.336 15.1222 120.419 15.2642C120.504 15.4034 120.612 15.4972 120.743 15.5455C120.876 15.5909 121.017 15.6136 121.164 15.6136C121.275 15.6136 121.366 15.608 121.437 15.5966C121.508 15.5824 121.565 15.571 121.608 15.5625L121.812 16.4659C121.744 16.4915 121.649 16.517 121.527 16.5426C121.404 16.571 121.25 16.5852 121.062 16.5852C120.778 16.5852 120.5 16.5241 120.227 16.402C119.957 16.2798 119.733 16.0938 119.554 15.8438C119.377 15.5938 119.289 15.2784 119.289 14.8977V8.38636Z" fill="#242424"/>
<rect width="24" height="24" transform="translate(130)" fill="#BDBDBD"/>
<path d="M136.426 7.77273V16.5H135.42V7.77273H136.426ZM141.098 16.6193C140.456 16.6193 139.909 16.4446 139.457 16.0952C139.005 15.7429 138.66 15.233 138.422 14.5653C138.183 13.8949 138.064 13.0852 138.064 12.1364C138.064 11.1932 138.183 10.3878 138.422 9.72017C138.663 9.04972 139.01 8.53835 139.461 8.18608C139.916 7.83097 140.461 7.65341 141.098 7.65341C141.734 7.65341 142.278 7.83097 142.73 8.18608C143.184 8.53835 143.531 9.04972 143.77 9.72017C144.011 10.3878 144.132 11.1932 144.132 12.1364C144.132 13.0852 144.012 13.8949 143.774 14.5653C143.535 15.233 143.19 15.7429 142.738 16.0952C142.287 16.4446 141.74 16.6193 141.098 16.6193ZM141.098 15.6818C141.734 15.6818 142.228 15.375 142.581 14.7614C142.933 14.1477 143.109 13.2727 143.109 12.1364C143.109 11.3807 143.028 10.7372 142.866 10.206C142.707 9.67472 142.477 9.26989 142.176 8.99148C141.877 8.71307 141.518 8.57386 141.098 8.57386C140.467 8.57386 139.974 8.88494 139.619 9.5071C139.264 10.1264 139.086 11.0028 139.086 12.1364C139.086 12.892 139.166 13.5341 139.325 14.0625C139.484 14.5909 139.713 14.9929 140.011 15.2685C140.312 15.544 140.674 15.6818 141.098 15.6818ZM148.615 9.95455V10.8068H145.223V9.95455H148.615ZM146.211 8.38636H147.217V14.625C147.217 14.9091 147.258 15.1222 147.341 15.2642C147.426 15.4034 147.534 15.4972 147.664 15.5455C147.798 15.5909 147.939 15.6136 148.086 15.6136C148.197 15.6136 148.288 15.608 148.359 15.5966C148.43 15.5824 148.487 15.571 148.529 15.5625L148.734 16.4659C148.666 16.4915 148.571 16.517 148.449 16.5426C148.326 16.571 148.172 16.5852 147.984 16.5852C147.7 16.5852 147.422 16.5241 147.149 16.402C146.879 16.2798 146.654 16.0938 146.475 15.8438C146.299 15.5938 146.211 15.2784 146.211 14.8977V8.38636Z" fill="#242424"/>
<rect width="24" height="24" transform="translate(156)" fill="#BDBDBD"/>
<path d="M160.42 16.5V9.95455H161.392V10.9432H161.46C161.58 10.6193 161.795 10.3565 162.108 10.1548C162.42 9.95312 162.773 9.85227 163.165 9.85227C163.239 9.85227 163.331 9.85369 163.442 9.85653C163.553 9.85937 163.636 9.86364 163.693 9.86932V10.892C163.659 10.8835 163.581 10.8707 163.459 10.8537C163.339 10.8338 163.213 10.8239 163.08 10.8239C162.761 10.8239 162.477 10.8906 162.227 11.0241C161.98 11.1548 161.784 11.3366 161.639 11.5696C161.497 11.7997 161.426 12.0625 161.426 12.358V16.5H160.42ZM167.715 16.6193C167.073 16.6193 166.526 16.4446 166.074 16.0952C165.623 15.7429 165.277 15.233 165.039 14.5653C164.8 13.8949 164.681 13.0852 164.681 12.1364C164.681 11.1932 164.8 10.3878 165.039 9.72017C165.28 9.04972 165.627 8.53835 166.078 8.18608C166.533 7.83097 167.078 7.65341 167.715 7.65341C168.351 7.65341 168.895 7.83097 169.347 8.18608C169.801 8.53835 170.148 9.04972 170.387 9.72017C170.628 10.3878 170.749 11.1932 170.749 12.1364C170.749 13.0852 170.63 13.8949 170.391 14.5653C170.152 15.233 169.807 15.7429 169.355 16.0952C168.904 16.4446 168.357 16.6193 167.715 16.6193ZM167.715 15.6818C168.351 15.6818 168.846 15.375 169.198 14.7614C169.55 14.1477 169.726 13.2727 169.726 12.1364C169.726 11.3807 169.645 10.7372 169.483 10.206C169.324 9.67472 169.094 9.26989 168.793 8.99148C168.495 8.71307 168.135 8.57386 167.715 8.57386C167.084 8.57386 166.591 8.88494 166.236 9.5071C165.881 10.1264 165.703 11.0028 165.703 12.1364C165.703 12.892 165.783 13.5341 165.942 14.0625C166.101 14.5909 166.33 14.9929 166.628 15.2685C166.929 15.544 167.292 15.6818 167.715 15.6818ZM175.232 9.95455V10.8068H171.84V9.95455H175.232ZM172.828 8.38636H173.834V14.625C173.834 14.9091 173.875 15.1222 173.958 15.2642C174.043 15.4034 174.151 15.4972 174.282 15.5455C174.415 15.5909 174.556 15.6136 174.703 15.6136C174.814 15.6136 174.905 15.608 174.976 15.5966C175.047 15.5824 175.104 15.571 175.147 15.5625L175.351 16.4659C175.283 16.4915 175.188 16.517 175.066 16.5426C174.944 16.571 174.789 16.5852 174.601 16.5852C174.317 16.5852 174.039 16.5241 173.766 16.402C173.496 16.2798 173.272 16.0938 173.093 15.8438C172.917 15.5938 172.828 15.2784 172.828 14.8977V8.38636Z" fill="#242424"/>
<rect width="24" height="24" transform="translate(182)" fill="#BDBDBD"/>
<path d="M187.42 16.5V9.95455H188.392V10.9432H188.46C188.58 10.6193 188.795 10.3565 189.108 10.1548C189.42 9.95312 189.773 9.85227 190.165 9.85227C190.239 9.85227 190.331 9.85369 190.442 9.85653C190.553 9.85937 190.636 9.86364 190.693 9.86932V10.892C190.659 10.8835 190.581 10.8707 190.459 10.8537C190.339 10.8338 190.213 10.8239 190.08 10.8239C189.761 10.8239 189.477 10.8906 189.227 11.0241C188.98 11.1548 188.784 11.3366 188.639 11.5696C188.497 11.7997 188.426 12.0625 188.426 12.358V16.5H187.42ZM194.936 7.77273V16.5H193.88V8.88068H193.828L191.698 10.2955V9.22159L193.88 7.77273H194.936ZM200.31 9.95455V10.8068H196.918V9.95455H200.31ZM197.907 8.38636H198.912V14.625C198.912 14.9091 198.953 15.1222 199.036 15.2642C199.121 15.4034 199.229 15.4972 199.36 15.5455C199.493 15.5909 199.634 15.6136 199.782 15.6136C199.892 15.6136 199.983 15.608 200.054 15.5966C200.125 15.5824 200.182 15.571 200.225 15.5625L200.429 16.4659C200.361 16.4915 200.266 16.517 200.144 16.5426C200.022 16.571 199.867 16.5852 199.679 16.5852C199.395 16.5852 199.117 16.5241 198.844 16.402C198.574 16.2798 198.35 16.0938 198.171 15.8438C197.995 15.5938 197.907 15.2784 197.907 14.8977V8.38636Z" fill="#242424"/>
<rect width="24" height="24" transform="translate(208)" fill="#BDBDBD"/>
<path d="M212.42 16.5V9.95455H213.392V10.9432H213.46C213.58 10.6193 213.795 10.3565 214.108 10.1548C214.42 9.95312 214.773 9.85227 215.165 9.85227C215.239 9.85227 215.331 9.85369 215.442 9.85653C215.553 9.85937 215.636 9.86364 215.693 9.86932V10.892C215.659 10.8835 215.581 10.8707 215.459 10.8537C215.339 10.8338 215.213 10.8239 215.08 10.8239C214.761 10.8239 214.477 10.8906 214.227 11.0241C213.98 11.1548 213.784 11.3366 213.639 11.5696C213.497 11.7997 213.426 12.0625 213.426 12.358V16.5H212.42ZM216.868 16.5V15.733L219.749 12.5795C220.087 12.2102 220.365 11.8892 220.584 11.6165C220.803 11.3409 220.965 11.0824 221.07 10.8409C221.178 10.5966 221.232 10.3409 221.232 10.0739C221.232 9.76705 221.158 9.50142 221.01 9.27699C220.865 9.05256 220.667 8.87926 220.414 8.7571C220.161 8.63494 219.877 8.57386 219.561 8.57386C219.226 8.57386 218.934 8.64347 218.684 8.78267C218.436 8.91903 218.245 9.1108 218.108 9.35795C217.975 9.60511 217.908 9.89489 217.908 10.2273H216.902C216.902 9.71591 217.02 9.26705 217.256 8.88068C217.492 8.49432 217.813 8.19318 218.219 7.97727C218.628 7.76136 219.087 7.65341 219.596 7.65341C220.107 7.65341 220.56 7.76136 220.955 7.97727C221.35 8.19318 221.659 8.48437 221.884 8.85085C222.108 9.21733 222.221 9.625 222.221 10.0739C222.221 10.3949 222.162 10.7088 222.046 11.0156C221.932 11.3196 221.733 11.6591 221.449 12.0341C221.168 12.4062 220.777 12.8608 220.277 13.3977L218.317 15.4943V15.5625H222.374V16.5H216.868ZM226.998 9.95455V10.8068H223.605V9.95455H226.998ZM224.594 8.38636H225.6V14.625C225.6 14.9091 225.641 15.1222 225.723 15.2642C225.809 15.4034 225.917 15.4972 226.047 15.5455C226.181 15.5909 226.321 15.6136 226.469 15.6136C226.58 15.6136 226.671 15.608 226.742 15.5966C226.813 15.5824 226.87 15.571 226.912 15.5625L227.117 16.4659C227.049 16.4915 226.953 16.517 226.831 16.5426C226.709 16.571 226.554 16.5852 226.367 16.5852C226.083 16.5852 225.804 16.5241 225.532 16.402C225.262 16.2798 225.037 16.0938 224.858 15.8438C224.682 15.5938 224.594 15.2784 224.594 14.8977V8.38636Z" fill="#242424"/>
<rect width="24" height="24" transform="translate(234)" fill="#BDBDBD"/>
<path d="M238.42 16.5V9.95455H239.392V10.9432H239.46C239.58 10.6193 239.795 10.3565 240.108 10.1548C240.42 9.95312 240.773 9.85227 241.165 9.85227C241.239 9.85227 241.331 9.85369 241.442 9.85653C241.553 9.85937 241.636 9.86364 241.693 9.86932V10.892C241.659 10.8835 241.581 10.8707 241.459 10.8537C241.339 10.8338 241.213 10.8239 241.08 10.8239C240.761 10.8239 240.477 10.8906 240.227 11.0241C239.98 11.1548 239.784 11.3366 239.639 11.5696C239.497 11.7997 239.426 12.0625 239.426 12.358V16.5H238.42ZM245.817 16.6193C245.255 16.6193 244.753 16.5227 244.313 16.3295C243.875 16.1364 243.527 15.8679 243.269 15.5241C243.013 15.1776 242.874 14.7756 242.851 14.3182H243.925C243.948 14.5994 244.044 14.8423 244.215 15.0469C244.385 15.2486 244.608 15.4048 244.884 15.5156C245.159 15.6264 245.465 15.6818 245.8 15.6818C246.175 15.6818 246.507 15.6165 246.797 15.4858C247.087 15.3551 247.314 15.1733 247.479 14.9403C247.644 14.7074 247.726 14.4375 247.726 14.1307C247.726 13.8097 247.647 13.527 247.488 13.2827C247.328 13.0355 247.096 12.8423 246.789 12.7031C246.482 12.5639 246.107 12.4943 245.664 12.4943H244.965V11.5568H245.664C246.01 11.5568 246.314 11.4943 246.576 11.3693C246.84 11.2443 247.046 11.0682 247.194 10.8409C247.344 10.6136 247.419 10.3466 247.419 10.0398C247.419 9.74432 247.354 9.48722 247.223 9.26847C247.093 9.04972 246.908 8.87926 246.669 8.7571C246.434 8.63494 246.155 8.57386 245.834 8.57386C245.533 8.57386 245.249 8.62926 244.982 8.74006C244.718 8.84801 244.502 9.00568 244.334 9.21307C244.167 9.41761 244.076 9.66477 244.061 9.95455H243.039C243.056 9.49716 243.194 9.09659 243.452 8.75284C243.711 8.40625 244.049 8.13636 244.466 7.94318C244.887 7.75 245.348 7.65341 245.851 7.65341C246.391 7.65341 246.854 7.76278 247.24 7.98153C247.627 8.19744 247.924 8.48295 248.131 8.83807C248.338 9.19318 248.442 9.5767 248.442 9.98864C248.442 10.4801 248.313 10.8991 248.054 11.2457C247.799 11.5923 247.451 11.8324 247.01 11.9659V12.0341C247.561 12.125 247.992 12.3594 248.301 12.7372C248.611 13.1122 248.766 13.5767 248.766 14.1307C248.766 14.6051 248.637 15.0312 248.378 15.4091C248.123 15.7841 247.773 16.0795 247.33 16.2955C246.887 16.5114 246.382 16.6193 245.817 16.6193ZM253.373 9.95455V10.8068H249.98V9.95455H253.373ZM250.969 8.38636H251.975V14.625C251.975 14.9091 252.016 15.1222 252.098 15.2642C252.184 15.4034 252.292 15.4972 252.422 15.5455C252.556 15.5909 252.696 15.6136 252.844 15.6136C252.955 15.6136 253.046 15.608 253.117 15.5966C253.188 15.5824 253.245 15.571 253.287 15.5625L253.492 16.4659C253.424 16.4915 253.328 16.517 253.206 16.5426C253.084 16.571 252.929 16.5852 252.742 16.5852C252.458 16.5852 252.179 16.5241 251.907 16.402C251.637 16.2798 251.412 16.0938 251.233 15.8438C251.057 15.5938 250.969 15.2784 250.969 14.8977V8.38636Z" fill="#242424"/>
<rect width="24" height="24" transform="translate(260)" fill="#BDBDBD"/>
<path d="M264.42 16.5V9.95455H265.392V10.9432H265.46C265.58 10.6193 265.795 10.3565 266.108 10.1548C266.42 9.95312 266.773 9.85227 267.165 9.85227C267.239 9.85227 267.331 9.85369 267.442 9.85653C267.553 9.85937 267.636 9.86364 267.693 9.86932V10.892C267.659 10.8835 267.581 10.8707 267.459 10.8537C267.339 10.8338 267.213 10.8239 267.08 10.8239C266.761 10.8239 266.477 10.8906 266.227 11.0241C265.98 11.1548 265.784 11.3366 265.639 11.5696C265.497 11.7997 265.426 12.0625 265.426 12.358V16.5H264.42ZM268.664 14.7102V13.8409L272.499 7.77273H273.13V9.11932H272.703L269.806 13.7045V13.7727H274.971V14.7102H268.664ZM272.772 16.5V14.446V14.0412V7.77273H273.777V16.5H272.772ZM279.431 9.95455V10.8068H276.039V9.95455H279.431ZM277.028 8.38636H278.033V14.625C278.033 14.9091 278.075 15.1222 278.157 15.2642C278.242 15.4034 278.35 15.4972 278.481 15.5455C278.614 15.5909 278.755 15.6136 278.903 15.6136C279.013 15.6136 279.104 15.608 279.175 15.5966C279.246 15.5824 279.303 15.571 279.346 15.5625L279.55 16.4659C279.482 16.4915 279.387 16.517 279.265 16.5426C279.143 16.571 278.988 16.5852 278.8 16.5852C278.516 16.5852 278.238 16.5241 277.965 16.402C277.695 16.2798 277.471 16.0938 277.292 15.8438C277.116 15.5938 277.028 15.2784 277.028 14.8977V8.38636Z" fill="#242424"/>
<rect width="6" height="24" transform="translate(286)" fill="url(#paint2_linear_101_254)"/>
<rect width="18" height="24" transform="translate(292)" fill="url(#paint3_radial_101_254)"/>
<rect width="24" height="24" transform="translate(286)" fill="#BDBDBD"/>
<rect width="24" height="24" transform="translate(0 52)" fill="#BDBDBD"/>
<rect width="24" height="24" transform="translate(26 52)" fill="#BDBDBD"/>
<path d="M30.9261 59.7727V68.5H29.9205V59.7727H30.9261ZM32.5465 66.7102V65.8409L36.3817 59.7727H37.0124V61.1193H36.5863L33.6886 65.7045V65.7727H38.8533V66.7102H32.5465ZM36.6545 68.5V66.446V66.0412V59.7727H37.6602V68.5H36.6545ZM40.6037 68.5V59.7727H41.6094V62.9943H41.6946C41.7685 62.8807 41.8707 62.7358 42.0014 62.5597C42.1349 62.3807 42.3253 62.2216 42.5724 62.0824C42.8224 61.9403 43.1605 61.8693 43.5866 61.8693C44.1378 61.8693 44.6236 62.0071 45.044 62.2827C45.4645 62.5582 45.7926 62.9489 46.0284 63.4545C46.2642 63.9602 46.3821 64.5568 46.3821 65.2443C46.3821 65.9375 46.2642 66.5384 46.0284 67.0469C45.7926 67.5526 45.4659 67.9446 45.0483 68.223C44.6307 68.4986 44.1491 68.6364 43.6037 68.6364C43.1832 68.6364 42.8466 68.5668 42.5938 68.4276C42.3409 68.2855 42.1463 68.125 42.0099 67.946C41.8736 67.7642 41.7685 67.6136 41.6946 67.4943H41.5753V68.5H40.6037ZM41.5923 65.2273C41.5923 65.7216 41.6648 66.1577 41.8097 66.5355C41.9545 66.9105 42.1662 67.2045 42.4446 67.4176C42.723 67.6278 43.0639 67.733 43.4673 67.733C43.8878 67.733 44.2386 67.6222 44.5199 67.4006C44.804 67.1761 45.017 66.875 45.1591 66.4972C45.304 66.1165 45.3764 65.6932 45.3764 65.2273C45.3764 64.767 45.3054 64.3523 45.1634 63.983C45.0241 63.6108 44.8125 63.3168 44.5284 63.1009C44.2472 62.8821 43.8935 62.7727 43.4673 62.7727C43.0582 62.7727 42.7145 62.8764 42.4361 63.0838C42.1577 63.2884 41.9474 63.5753 41.8054 63.9446C41.6634 64.3111 41.5923 64.7386 41.5923 65.2273Z" fill="#242424"/>
<rect width="24" height="24" transform="translate(52 52)" fill="#BDBDBD"/>
<path d="M56.9261 59.7727V68.5H55.9205V59.7727H56.9261ZM61.6999 68.6193C61.1374 68.6193 60.636 68.5227 60.1957 68.3295C59.7582 68.1364 59.4102 67.8679 59.1516 67.5241C58.896 67.1776 58.7567 66.7756 58.734 66.3182H59.8079C59.8306 66.5994 59.9272 66.8423 60.0977 67.0469C60.2681 67.2486 60.4911 67.4048 60.7667 67.5156C61.0423 67.6264 61.3477 67.6818 61.6829 67.6818C62.0579 67.6818 62.3903 67.6165 62.68 67.4858C62.9698 67.3551 63.1971 67.1733 63.3619 66.9403C63.5266 66.7074 63.609 66.4375 63.609 66.1307C63.609 65.8097 63.5295 65.527 63.3704 65.2827C63.2113 65.0355 62.9783 64.8423 62.6715 64.7031C62.3647 64.5639 61.9897 64.4943 61.5465 64.4943H60.8477V63.5568H61.5465C61.8931 63.5568 62.1971 63.4943 62.4585 63.3693C62.7227 63.2443 62.9286 63.0682 63.0763 62.8409C63.2269 62.6136 63.3022 62.3466 63.3022 62.0398C63.3022 61.7443 63.2369 61.4872 63.1062 61.2685C62.9755 61.0497 62.7908 60.8793 62.5522 60.7571C62.3164 60.6349 62.038 60.5739 61.717 60.5739C61.4158 60.5739 61.1317 60.6293 60.8647 60.7401C60.6005 60.848 60.3846 61.0057 60.217 61.2131C60.0494 61.4176 59.9585 61.6648 59.9442 61.9545H58.9215C58.9386 61.4972 59.0763 61.0966 59.3349 60.7528C59.5934 60.4062 59.9315 60.1364 60.3491 59.9432C60.7695 59.75 61.2312 59.6534 61.734 59.6534C62.2738 59.6534 62.7369 59.7628 63.1232 59.9815C63.5096 60.1974 63.8065 60.483 64.0138 60.8381C64.2212 61.1932 64.3249 61.5767 64.3249 61.9886C64.3249 62.4801 64.1957 62.8991 63.9371 63.2457C63.6815 63.5923 63.3335 63.8324 62.8931 63.9659V64.0341C63.4442 64.125 63.8746 64.3594 64.1843 64.7372C64.494 65.1122 64.6488 65.5767 64.6488 66.1307C64.6488 66.6051 64.5195 67.0312 64.261 67.4091C64.0053 67.7841 63.6559 68.0795 63.2127 68.2955C62.7695 68.5114 62.2653 68.6193 61.6999 68.6193ZM66.5451 68.5V59.7727H67.5508V62.9943H67.636C67.7099 62.8807 67.8121 62.7358 67.9428 62.5597C68.0763 62.3807 68.2667 62.2216 68.5138 62.0824C68.7638 61.9403 69.1019 61.8693 69.5281 61.8693C70.0792 61.8693 70.565 62.0071 70.9854 62.2827C71.4059 62.5582 71.734 62.9489 71.9698 63.4545C72.2056 63.9602 72.3235 64.5568 72.3235 65.2443C72.3235 65.9375 72.2056 66.5384 71.9698 67.0469C71.734 67.5526 71.4073 67.9446 70.9897 68.223C70.5721 68.4986 70.0906 68.6364 69.5451 68.6364C69.1246 68.6364 68.788 68.5668 68.5352 68.4276C68.2823 68.2855 68.0877 68.125 67.9513 67.946C67.815 67.7642 67.7099 67.6136 67.636 67.4943H67.5167V68.5H66.5451ZM67.5337 65.2273C67.5337 65.7216 67.6062 66.1577 67.7511 66.5355C67.896 66.9105 68.1076 67.2045 68.386 67.4176C68.6644 67.6278 69.0053 67.733 69.4087 67.733C69.8292 67.733 70.18 67.6222 70.4613 67.4006C70.7454 67.1761 70.9585 66.875 71.1005 66.4972C71.2454 66.1165 71.3178 65.6932 71.3178 65.2273C71.3178 64.767 71.2468 64.3523 71.1048 63.983C70.9656 63.6108 70.7539 63.3168 70.4698 63.1009C70.1886 62.8821 69.8349 62.7727 69.4087 62.7727C68.9996 62.7727 68.6559 62.8764 68.3775 63.0838C68.0991 63.2884 67.8888 63.5753 67.7468 63.9446C67.6048 64.3111 67.5337 64.7386 67.5337 65.2273Z" fill="#242424"/>
<rect width="24" height="24" transform="translate(78 52)" fill="#BDBDBD"/>
<path d="M82.9261 59.7727V68.5H81.9205V59.7727H82.9261ZM84.7511 68.5V67.733L87.6317 64.5795C87.9698 64.2102 88.2482 63.8892 88.467 63.6165C88.6857 63.3409 88.8477 63.0824 88.9528 62.8409C89.0607 62.5966 89.1147 62.3409 89.1147 62.0739C89.1147 61.767 89.0408 61.5014 88.8931 61.277C88.7482 61.0526 88.5494 60.8793 88.2965 60.7571C88.0437 60.6349 87.7596 60.5739 87.4442 60.5739C87.109 60.5739 86.8164 60.6435 86.5664 60.7827C86.3192 60.919 86.1275 61.1108 85.9911 61.358C85.8576 61.6051 85.7908 61.8949 85.7908 62.2273H84.7852C84.7852 61.7159 84.9031 61.267 85.1388 60.8807C85.3746 60.4943 85.6957 60.1932 86.1019 59.9773C86.511 59.7614 86.9698 59.6534 87.4783 59.6534C87.9897 59.6534 88.4428 59.7614 88.8377 59.9773C89.2326 60.1932 89.5423 60.4844 89.7667 60.8509C89.9911 61.2173 90.1033 61.625 90.1033 62.0739C90.1033 62.3949 90.0451 62.7088 89.9286 63.0156C89.815 63.3196 89.6161 63.6591 89.332 64.0341C89.0508 64.4062 88.6602 64.8608 88.1602 65.3977L86.1999 67.4943V67.5625H90.2567V68.5H84.7511ZM92.1701 68.5V59.7727H93.1758V62.9943H93.261C93.3349 62.8807 93.4371 62.7358 93.5678 62.5597C93.7013 62.3807 93.8917 62.2216 94.1388 62.0824C94.3888 61.9403 94.7269 61.8693 95.1531 61.8693C95.7042 61.8693 96.19 62.0071 96.6104 62.2827C97.0309 62.5582 97.359 62.9489 97.5948 63.4545C97.8306 63.9602 97.9485 64.5568 97.9485 65.2443C97.9485 65.9375 97.8306 66.5384 97.5948 67.0469C97.359 67.5526 97.0323 67.9446 96.6147 68.223C96.1971 68.4986 95.7156 68.6364 95.1701 68.6364C94.7496 68.6364 94.413 68.5668 94.1602 68.4276C93.9073 68.2855 93.7127 68.125 93.5763 67.946C93.44 67.7642 93.3349 67.6136 93.261 67.4943H93.1417V68.5H92.1701ZM93.1587 65.2273C93.1587 65.7216 93.2312 66.1577 93.3761 66.5355C93.521 66.9105 93.7326 67.2045 94.011 67.4176C94.2894 67.6278 94.6303 67.733 95.0337 67.733C95.4542 67.733 95.805 67.6222 96.0863 67.4006C96.3704 67.1761 96.5835 66.875 96.7255 66.4972C96.8704 66.1165 96.9428 65.6932 96.9428 65.2273C96.9428 64.767 96.8718 64.3523 96.7298 63.983C96.5906 63.6108 96.3789 63.3168 96.0948 63.1009C95.8136 62.8821 95.4599 62.7727 95.0337 62.7727C94.6246 62.7727 94.2809 62.8764 94.0025 63.0838C93.7241 63.2884 93.5138 63.5753 93.3718 63.9446C93.2298 64.3111 93.1587 64.7386 93.1587 65.2273Z" fill="#242424"/>
<rect width="24" height="24" transform="translate(104 52)" fill="#BDBDBD"/>
<path d="M109.926 59.7727V68.5H108.92V59.7727H109.926ZM114.819 59.7727V68.5H113.762V60.8807H113.711L111.581 62.2955V61.2216L113.762 59.7727H114.819ZM117.483 68.5V59.7727H118.488V62.9943H118.574C118.647 62.8807 118.75 62.7358 118.88 62.5597C119.014 62.3807 119.204 62.2216 119.451 62.0824C119.701 61.9403 120.039 61.8693 120.466 61.8693C121.017 61.8693 121.502 62.0071 121.923 62.2827C122.343 62.5582 122.672 62.9489 122.907 63.4545C123.143 63.9602 123.261 64.5568 123.261 65.2443C123.261 65.9375 123.143 66.5384 122.907 67.0469C122.672 67.5526 122.345 67.9446 121.927 68.223C121.51 68.4986 121.028 68.6364 120.483 68.6364C120.062 68.6364 119.725 68.5668 119.473 68.4276C119.22 68.2855 119.025 68.125 118.889 67.946C118.752 67.7642 118.647 67.6136 118.574 67.4943H118.454V68.5H117.483ZM118.471 65.2273C118.471 65.7216 118.544 66.1577 118.689 66.5355C118.833 66.9105 119.045 67.2045 119.324 67.4176C119.602 67.6278 119.943 67.733 120.346 67.733C120.767 67.733 121.118 67.6222 121.399 67.4006C121.683 67.1761 121.896 66.875 122.038 66.4972C122.183 66.1165 122.255 65.6932 122.255 65.2273C122.255 64.767 122.184 64.3523 122.042 63.983C121.903 63.6108 121.691 63.3168 121.407 63.1009C121.126 62.8821 120.772 62.7727 120.346 62.7727C119.937 62.7727 119.593 62.8764 119.315 63.0838C119.037 63.2884 118.826 63.5753 118.684 63.9446C118.542 64.3111 118.471 64.7386 118.471 65.2273Z" fill="#242424"/>
<rect width="24" height="24" transform="translate(130 52)" fill="#BDBDBD"/>
<path d="M134.926 59.7727V68.5H133.92V59.7727H134.926ZM139.598 68.6193C138.956 68.6193 138.409 68.4446 137.957 68.0952C137.505 67.7429 137.16 67.233 136.922 66.5653C136.683 65.8949 136.564 65.0852 136.564 64.1364C136.564 63.1932 136.683 62.3878 136.922 61.7202C137.163 61.0497 137.51 60.5384 137.961 60.1861C138.416 59.831 138.961 59.6534 139.598 59.6534C140.234 59.6534 140.778 59.831 141.23 60.1861C141.684 60.5384 142.031 61.0497 142.27 61.7202C142.511 62.3878 142.632 63.1932 142.632 64.1364C142.632 65.0852 142.512 65.8949 142.274 66.5653C142.035 67.233 141.69 67.7429 141.238 68.0952C140.787 68.4446 140.24 68.6193 139.598 68.6193ZM139.598 67.6818C140.234 67.6818 140.728 67.375 141.081 66.7614C141.433 66.1477 141.609 65.2727 141.609 64.1364C141.609 63.3807 141.528 62.7372 141.366 62.206C141.207 61.6747 140.977 61.2699 140.676 60.9915C140.377 60.7131 140.018 60.5739 139.598 60.5739C138.967 60.5739 138.474 60.8849 138.119 61.5071C137.764 62.1264 137.586 63.0028 137.586 64.1364C137.586 64.892 137.666 65.5341 137.825 66.0625C137.984 66.5909 138.213 66.9929 138.511 67.2685C138.812 67.544 139.174 67.6818 139.598 67.6818ZM144.404 68.5V59.7727H145.41V62.9943H145.495C145.569 62.8807 145.672 62.7358 145.802 62.5597C145.936 62.3807 146.126 62.2216 146.373 62.0824C146.623 61.9403 146.961 61.8693 147.387 61.8693C147.939 61.8693 148.424 62.0071 148.845 62.2827C149.265 62.5582 149.593 62.9489 149.829 63.4545C150.065 63.9602 150.183 64.5568 150.183 65.2443C150.183 65.9375 150.065 66.5384 149.829 67.0469C149.593 67.5526 149.267 67.9446 148.849 68.223C148.431 68.4986 147.95 68.6364 147.404 68.6364C146.984 68.6364 146.647 68.5668 146.395 68.4276C146.142 68.2855 145.947 68.125 145.811 67.946C145.674 67.7642 145.569 67.6136 145.495 67.4943H145.376V68.5H144.404ZM145.393 65.2273C145.393 65.7216 145.466 66.1577 145.61 66.5355C145.755 66.9105 145.967 67.2045 146.245 67.4176C146.524 67.6278 146.865 67.733 147.268 67.733C147.689 67.733 148.039 67.6222 148.321 67.4006C148.605 67.1761 148.818 66.875 148.96 66.4972C149.105 66.1165 149.177 65.6932 149.177 65.2273C149.177 64.767 149.106 64.3523 148.964 63.983C148.825 63.6108 148.613 63.3168 148.329 63.1009C148.048 62.8821 147.694 62.7727 147.268 62.7727C146.859 62.7727 146.515 62.8764 146.237 63.0838C145.958 63.2884 145.748 63.5753 145.606 63.9446C145.464 64.3111 145.393 64.7386 145.393 65.2273Z" fill="#242424"/>
<rect width="24" height="24" transform="translate(156 52)" fill="#BDBDBD"/>
<path d="M158.92 68.5V61.9545H159.892V62.9432H159.96C160.08 62.6193 160.295 62.3565 160.608 62.1548C160.92 61.9531 161.273 61.8523 161.665 61.8523C161.739 61.8523 161.831 61.8537 161.942 61.8565C162.053 61.8594 162.136 61.8636 162.193 61.8693V62.892C162.159 62.8835 162.081 62.8707 161.959 62.8537C161.839 62.8338 161.713 62.8239 161.58 62.8239C161.261 62.8239 160.977 62.8906 160.727 63.0241C160.48 63.1548 160.284 63.3366 160.139 63.5696C159.997 63.7997 159.926 64.0625 159.926 64.358V68.5H158.92ZM166.215 68.6193C165.573 68.6193 165.026 68.4446 164.574 68.0952C164.123 67.7429 163.777 67.233 163.539 66.5653C163.3 65.8949 163.181 65.0852 163.181 64.1364C163.181 63.1932 163.3 62.3878 163.539 61.7202C163.78 61.0497 164.127 60.5384 164.578 60.1861C165.033 59.831 165.578 59.6534 166.215 59.6534C166.851 59.6534 167.395 59.831 167.847 60.1861C168.301 60.5384 168.648 61.0497 168.887 61.7202C169.128 62.3878 169.249 63.1932 169.249 64.1364C169.249 65.0852 169.13 65.8949 168.891 66.5653C168.652 67.233 168.307 67.7429 167.855 68.0952C167.404 68.4446 166.857 68.6193 166.215 68.6193ZM166.215 67.6818C166.851 67.6818 167.346 67.375 167.698 66.7614C168.05 66.1477 168.226 65.2727 168.226 64.1364C168.226 63.3807 168.145 62.7372 167.983 62.206C167.824 61.6747 167.594 61.2699 167.293 60.9915C166.995 60.7131 166.635 60.5739 166.215 60.5739C165.584 60.5739 165.091 60.8849 164.736 61.5071C164.381 62.1264 164.203 63.0028 164.203 64.1364C164.203 64.892 164.283 65.5341 164.442 66.0625C164.601 66.5909 164.83 66.9929 165.128 67.2685C165.429 67.544 165.792 67.6818 166.215 67.6818ZM171.022 68.5V59.7727H172.027V62.9943H172.113C172.186 62.8807 172.289 62.7358 172.419 62.5597C172.553 62.3807 172.743 62.2216 172.99 62.0824C173.24 61.9403 173.578 61.8693 174.005 61.8693C174.556 61.8693 175.042 62.0071 175.462 62.2827C175.882 62.5582 176.211 62.9489 176.446 63.4545C176.682 63.9602 176.8 64.5568 176.8 65.2443C176.8 65.9375 176.682 66.5384 176.446 67.0469C176.211 67.5526 175.884 67.9446 175.466 68.223C175.049 68.4986 174.567 68.6364 174.022 68.6364C173.601 68.6364 173.265 68.5668 173.012 68.4276C172.759 68.2855 172.564 68.125 172.428 67.946C172.292 67.7642 172.186 67.6136 172.113 67.4943H171.993V68.5H171.022ZM172.01 65.2273C172.01 65.7216 172.083 66.1577 172.228 66.5355C172.373 66.9105 172.584 67.2045 172.863 67.4176C173.141 67.6278 173.482 67.733 173.885 67.733C174.306 67.733 174.657 67.6222 174.938 67.4006C175.222 67.1761 175.435 66.875 175.577 66.4972C175.722 66.1165 175.794 65.6932 175.794 65.2273C175.794 64.767 175.723 64.3523 175.581 63.983C175.442 63.6108 175.23 63.3168 174.946 63.1009C174.665 62.8821 174.311 62.7727 173.885 62.7727C173.476 62.7727 173.132 62.8764 172.854 63.0838C172.576 63.2884 172.365 63.5753 172.223 63.9446C172.081 64.3111 172.01 64.7386 172.01 65.2273Z" fill="#242424"/>
<rect width="24" height="24" transform="translate(182 52)" fill="#BDBDBD"/>
<path d="M185.92 68.5V61.9545H186.892V62.9432H186.96C187.08 62.6193 187.295 62.3565 187.608 62.1548C187.92 61.9531 188.273 61.8523 188.665 61.8523C188.739 61.8523 188.831 61.8537 188.942 61.8565C189.053 61.8594 189.136 61.8636 189.193 61.8693V62.892C189.159 62.8835 189.081 62.8707 188.959 62.8537C188.839 62.8338 188.713 62.8239 188.58 62.8239C188.261 62.8239 187.977 62.8906 187.727 63.0241C187.48 63.1548 187.284 63.3366 187.139 63.5696C186.997 63.7997 186.926 64.0625 186.926 64.358V68.5H185.92ZM193.436 59.7727V68.5H192.38V60.8807H192.328L190.198 62.2955V61.2216L192.38 59.7727H193.436ZM196.1 68.5V59.7727H197.105V62.9943H197.191C197.265 62.8807 197.367 62.7358 197.498 62.5597C197.631 62.3807 197.821 62.2216 198.069 62.0824C198.319 61.9403 198.657 61.8693 199.083 61.8693C199.634 61.8693 200.12 62.0071 200.54 62.2827C200.961 62.5582 201.289 62.9489 201.525 63.4545C201.76 63.9602 201.878 64.5568 201.878 65.2443C201.878 65.9375 201.76 66.5384 201.525 67.0469C201.289 67.5526 200.962 67.9446 200.544 68.223C200.127 68.4986 199.645 68.6364 199.1 68.6364C198.679 68.6364 198.343 68.5668 198.09 68.4276C197.837 68.2855 197.642 68.125 197.506 67.946C197.37 67.7642 197.265 67.6136 197.191 67.4943H197.071V68.5H196.1ZM197.088 65.2273C197.088 65.7216 197.161 66.1577 197.306 66.5355C197.451 66.9105 197.662 67.2045 197.941 67.4176C198.219 67.6278 198.56 67.733 198.963 67.733C199.384 67.733 199.735 67.6222 200.016 67.4006C200.3 67.1761 200.513 66.875 200.655 66.4972C200.8 66.1165 200.873 65.6932 200.873 65.2273C200.873 64.767 200.801 64.3523 200.659 63.983C200.52 63.6108 200.309 63.3168 200.025 63.1009C199.743 62.8821 199.39 62.7727 198.963 62.7727C198.554 62.7727 198.211 62.8764 197.932 63.0838C197.654 63.2884 197.444 63.5753 197.301 63.9446C197.159 64.3111 197.088 64.7386 197.088 65.2273Z" fill="#242424"/>
<rect width="24" height="24" transform="translate(208 52)" fill="#BDBDBD"/>
<path d="M210.92 68.5V61.9545H211.892V62.9432H211.96C212.08 62.6193 212.295 62.3565 212.608 62.1548C212.92 61.9531 213.273 61.8523 213.665 61.8523C213.739 61.8523 213.831 61.8537 213.942 61.8565C214.053 61.8594 214.136 61.8636 214.193 61.8693V62.892C214.159 62.8835 214.081 62.8707 213.959 62.8537C213.839 62.8338 213.713 62.8239 213.58 62.8239C213.261 62.8239 212.977 62.8906 212.727 63.0241C212.48 63.1548 212.284 63.3366 212.139 63.5696C211.997 63.7997 211.926 64.0625 211.926 64.358V68.5H210.92ZM215.368 68.5V67.733L218.249 64.5795C218.587 64.2102 218.865 63.8892 219.084 63.6165C219.303 63.3409 219.465 63.0824 219.57 62.8409C219.678 62.5966 219.732 62.3409 219.732 62.0739C219.732 61.767 219.658 61.5014 219.51 61.277C219.365 61.0526 219.167 60.8793 218.914 60.7571C218.661 60.6349 218.377 60.5739 218.061 60.5739C217.726 60.5739 217.434 60.6435 217.184 60.7827C216.936 60.919 216.745 61.1108 216.608 61.358C216.475 61.6051 216.408 61.8949 216.408 62.2273H215.402C215.402 61.7159 215.52 61.267 215.756 60.8807C215.992 60.4943 216.313 60.1932 216.719 59.9773C217.128 59.7614 217.587 59.6534 218.096 59.6534C218.607 59.6534 219.06 59.7614 219.455 59.9773C219.85 60.1932 220.159 60.4844 220.384 60.8509C220.608 61.2173 220.721 61.625 220.721 62.0739C220.721 62.3949 220.662 62.7088 220.546 63.0156C220.432 63.3196 220.233 63.6591 219.949 64.0341C219.668 64.4062 219.277 64.8608 218.777 65.3977L216.817 67.4943V67.5625H220.874V68.5H215.368ZM222.787 68.5V59.7727H223.793V62.9943H223.878C223.952 62.8807 224.054 62.7358 224.185 62.5597C224.319 62.3807 224.509 62.2216 224.756 62.0824C225.006 61.9403 225.344 61.8693 225.77 61.8693C226.321 61.8693 226.807 62.0071 227.228 62.2827C227.648 62.5582 227.976 62.9489 228.212 63.4545C228.448 63.9602 228.566 64.5568 228.566 65.2443C228.566 65.9375 228.448 66.5384 228.212 67.0469C227.976 67.5526 227.65 67.9446 227.232 68.223C226.814 68.4986 226.333 68.6364 225.787 68.6364C225.367 68.6364 225.03 68.5668 224.777 68.4276C224.525 68.2855 224.33 68.125 224.194 67.946C224.057 67.7642 223.952 67.6136 223.878 67.4943H223.759V68.5H222.787ZM223.776 65.2273C223.776 65.7216 223.848 66.1577 223.993 66.5355C224.138 66.9105 224.35 67.2045 224.628 67.4176C224.907 67.6278 225.248 67.733 225.651 67.733C226.071 67.733 226.422 67.6222 226.703 67.4006C226.988 67.1761 227.201 66.875 227.343 66.4972C227.488 66.1165 227.56 65.6932 227.56 65.2273C227.56 64.767 227.489 64.3523 227.347 63.983C227.208 63.6108 226.996 63.3168 226.712 63.1009C226.431 62.8821 226.077 62.7727 225.651 62.7727C225.242 62.7727 224.898 62.8764 224.62 63.0838C224.341 63.2884 224.131 63.5753 223.989 63.9446C223.847 64.3111 223.776 64.7386 223.776 65.2273Z" fill="#242424"/>
<rect width="24" height="24" transform="translate(234 52)" fill="#BDBDBD"/>
<path d="M236.92 68.5V61.9545H237.892V62.9432H237.96C238.08 62.6193 238.295 62.3565 238.608 62.1548C238.92 61.9531 239.273 61.8523 239.665 61.8523C239.739 61.8523 239.831 61.8537 239.942 61.8565C240.053 61.8594 240.136 61.8636 240.193 61.8693V62.892C240.159 62.8835 240.081 62.8707 239.959 62.8537C239.839 62.8338 239.713 62.8239 239.58 62.8239C239.261 62.8239 238.977 62.8906 238.727 63.0241C238.48 63.1548 238.284 63.3366 238.139 63.5696C237.997 63.7997 237.926 64.0625 237.926 64.358V68.5H236.92ZM244.317 68.6193C243.755 68.6193 243.253 68.5227 242.813 68.3295C242.375 68.1364 242.027 67.8679 241.769 67.5241C241.513 67.1776 241.374 66.7756 241.351 66.3182H242.425C242.448 66.5994 242.544 66.8423 242.715 67.0469C242.885 67.2486 243.108 67.4048 243.384 67.5156C243.659 67.6264 243.965 67.6818 244.3 67.6818C244.675 67.6818 245.007 67.6165 245.297 67.4858C245.587 67.3551 245.814 67.1733 245.979 66.9403C246.144 66.7074 246.226 66.4375 246.226 66.1307C246.226 65.8097 246.147 65.527 245.988 65.2827C245.828 65.0355 245.596 64.8423 245.289 64.7031C244.982 64.5639 244.607 64.4943 244.164 64.4943H243.465V63.5568H244.164C244.51 63.5568 244.814 63.4943 245.076 63.3693C245.34 63.2443 245.546 63.0682 245.694 62.8409C245.844 62.6136 245.919 62.3466 245.919 62.0398C245.919 61.7443 245.854 61.4872 245.723 61.2685C245.593 61.0497 245.408 60.8793 245.169 60.7571C244.934 60.6349 244.655 60.5739 244.334 60.5739C244.033 60.5739 243.749 60.6293 243.482 60.7401C243.218 60.848 243.002 61.0057 242.834 61.2131C242.667 61.4176 242.576 61.6648 242.561 61.9545H241.539C241.556 61.4972 241.694 61.0966 241.952 60.7528C242.211 60.4062 242.549 60.1364 242.966 59.9432C243.387 59.75 243.848 59.6534 244.351 59.6534C244.891 59.6534 245.354 59.7628 245.74 59.9815C246.127 60.1974 246.424 60.483 246.631 60.8381C246.838 61.1932 246.942 61.5767 246.942 61.9886C246.942 62.4801 246.813 62.8991 246.554 63.2457C246.299 63.5923 245.951 63.8324 245.51 63.9659V64.0341C246.061 64.125 246.492 64.3594 246.801 64.7372C247.111 65.1122 247.266 65.5767 247.266 66.1307C247.266 66.6051 247.137 67.0312 246.878 67.4091C246.623 67.7841 246.273 68.0795 245.83 68.2955C245.387 68.5114 244.882 68.6193 244.317 68.6193ZM249.162 68.5V59.7727H250.168V62.9943H250.253C250.327 62.8807 250.429 62.7358 250.56 62.5597C250.694 62.3807 250.884 62.2216 251.131 62.0824C251.381 61.9403 251.719 61.8693 252.145 61.8693C252.696 61.8693 253.182 62.0071 253.603 62.2827C254.023 62.5582 254.351 62.9489 254.587 63.4545C254.823 63.9602 254.941 64.5568 254.941 65.2443C254.941 65.9375 254.823 66.5384 254.587 67.0469C254.351 67.5526 254.025 67.9446 253.607 68.223C253.189 68.4986 252.708 68.6364 252.162 68.6364C251.742 68.6364 251.405 68.5668 251.152 68.4276C250.9 68.2855 250.705 68.125 250.569 67.946C250.432 67.7642 250.327 67.6136 250.253 67.4943H250.134V68.5H249.162ZM250.151 65.2273C250.151 65.7216 250.223 66.1577 250.368 66.5355C250.513 66.9105 250.725 67.2045 251.003 67.4176C251.282 67.6278 251.623 67.733 252.026 67.733C252.446 67.733 252.797 67.6222 253.078 67.4006C253.363 67.1761 253.576 66.875 253.718 66.4972C253.863 66.1165 253.935 65.6932 253.935 65.2273C253.935 64.767 253.864 64.3523 253.722 63.983C253.583 63.6108 253.371 63.3168 253.087 63.1009C252.806 62.8821 252.452 62.7727 252.026 62.7727C251.617 62.7727 251.273 62.8764 250.995 63.0838C250.716 63.2884 250.506 63.5753 250.364 63.9446C250.222 64.3111 250.151 64.7386 250.151 65.2273Z" fill="#242424"/>
<rect width="14" height="24" transform="translate(260 52)" fill="url(#paint4_linear_101_254)"/>
<rect width="10" height="24" transform="translate(274 52)" fill="url(#paint5_radial_101_254)"/>
<rect width="24" height="24" transform="translate(260 52)" fill="#BDBDBD"/>
<path d="M262.92 68.5V61.9545H263.892V62.9432H263.96C264.08 62.6193 264.295 62.3565 264.608 62.1548C264.92 61.9531 265.273 61.8523 265.665 61.8523C265.739 61.8523 265.831 61.8537 265.942 61.8565C266.053 61.8594 266.136 61.8636 266.193 61.8693V62.892C266.159 62.8835 266.081 62.8707 265.959 62.8537C265.839 62.8338 265.713 62.8239 265.58 62.8239C265.261 62.8239 264.977 62.8906 264.727 63.0241C264.48 63.1548 264.284 63.3366 264.139 63.5696C263.997 63.7997 263.926 64.0625 263.926 64.358V68.5H262.92ZM267.164 66.7102V65.8409L270.999 59.7727H271.63V61.1193H271.203L268.306 65.7045V65.7727H273.471V66.7102H267.164ZM271.272 68.5V66.446V66.0412V59.7727H272.277V68.5H271.272ZM275.221 68.5V59.7727H276.227V62.9943H276.312C276.386 62.8807 276.488 62.7358 276.619 62.5597C276.752 62.3807 276.942 62.2216 277.19 62.0824C277.44 61.9403 277.778 61.8693 278.204 61.8693C278.755 61.8693 279.241 62.0071 279.661 62.2827C280.082 62.5582 280.41 62.9489 280.646 63.4545C280.881 63.9602 280.999 64.5568 280.999 65.2443C280.999 65.9375 280.881 66.5384 280.646 67.0469C280.41 67.5526 280.083 67.9446 279.665 68.223C279.248 68.4986 278.766 68.6364 278.221 68.6364C277.8 68.6364 277.464 68.5668 277.211 68.4276C276.958 68.2855 276.763 68.125 276.627 67.946C276.491 67.7642 276.386 67.6136 276.312 67.4943H276.192V68.5H275.221ZM276.21 65.2273C276.21 65.7216 276.282 66.1577 276.427 66.5355C276.572 66.9105 276.783 67.2045 277.062 67.4176C277.34 67.6278 277.681 67.733 278.085 67.733C278.505 67.733 278.856 67.6222 279.137 67.4006C279.421 67.1761 279.634 66.875 279.776 66.4972C279.921 66.1165 279.994 65.6932 279.994 65.2273C279.994 64.767 279.923 64.3523 279.781 63.983C279.641 63.6108 279.43 63.3168 279.146 63.1009C278.864 62.8821 278.511 62.7727 278.085 62.7727C277.675 62.7727 277.332 62.8764 277.053 63.0838C276.775 63.2884 276.565 63.5753 276.423 63.9446C276.281 64.3111 276.21 64.7386 276.21 65.2273Z" fill="#242424"/>
<rect width="24" height="24" transform="translate(286 52)" fill="#BDBDBD"/>
<rect width="24" height="24" transform="translate(0 26)" fill="#BDBDBD"/>
<rect width="24" height="24" transform="translate(286 26)" fill="#BDBDBD"/>
<defs>
<radialGradient id="paint0_radial_101_254" cx="0" cy="0" r="1" gradientUnits="userSpaceOnUse" gradientTransform="translate(4 24) rotate(-90) scale(24 23.9103)">
<stop stop-color="#BDBDBD"/>
<stop offset="1" stop-color="#F0F0F0" stop-opacity="0"/>
</radialGradient>
<linearGradient id="paint1_linear_101_254" x1="10" y1="24" x2="10" y2="-3.57628e-07" gradientUnits="userSpaceOnUse">
<stop stop-color="#BDBDBD"/>
<stop offset="1" stop-color="#F0F0F0" stop-opacity="0"/>
</linearGradient>
<linearGradient id="paint2_linear_101_254" x1="0" y1="24" x2="0" y2="0" gradientUnits="userSpaceOnUse">
<stop stop-color="#BDBDBD"/>
<stop offset="1" stop-color="#F0F0F0" stop-opacity="0"/>
</linearGradient>
<radialGradient id="paint3_radial_101_254" cx="0" cy="0" r="1" gradientUnits="userSpaceOnUse" gradientTransform="translate(0 24) rotate(-90) scale(24 23.9901)">
<stop stop-color="#BDBDBD"/>
<stop offset="1" stop-color="#F0F0F0" stop-opacity="0"/>
</radialGradient>
<linearGradient id="paint4_linear_101_254" x1="0" y1="0" x2="0" y2="24" gradientUnits="userSpaceOnUse">
<stop stop-color="#BDBDBD"/>
<stop offset="1" stop-color="#F0F0F0" stop-opacity="0"/>
</linearGradient>
<radialGradient id="paint5_radial_101_254" cx="0" cy="0" r="1" gradientUnits="userSpaceOnUse" gradientTransform="rotate(90) scale(24 23.9715)">
<stop stop-color="#BDBDBD"/>
<stop offset="1" stop-color="#F0F0F0" stop-opacity="0"/>
</radialGradient>
</defs>
</svg>
