<svg width="310" height="76" viewBox="0 0 310 76" fill="none" xmlns="http://www.w3.org/2000/svg">
<rect width="24" height="24" transform="translate(26 26)" fill="#373737"/>
<path d="M34.5568 42.5V33.7727H35.6136V37.6591H40.267V33.7727H41.3239V42.5H40.267V38.5966H35.6136V42.5H34.5568Z" fill="#E4E4E4"/>
<rect width="24" height="24" transform="translate(52 26)" fill="#373737"/>
<path d="M67.4205 38.1364C67.4205 39.0568 67.2543 39.8523 66.9219 40.5227C66.5895 41.1932 66.1335 41.7102 65.554 42.0739C64.9744 42.4375 64.3125 42.6193 63.5682 42.6193C62.8239 42.6193 62.1619 42.4375 61.5824 42.0739C61.0028 41.7102 60.5469 41.1932 60.2145 40.5227C59.8821 39.8523 59.7159 39.0568 59.7159 38.1364C59.7159 37.2159 59.8821 36.4205 60.2145 35.75C60.5469 35.0795 61.0028 34.5625 61.5824 34.1989C62.1619 33.8352 62.8239 33.6534 63.5682 33.6534C64.3125 33.6534 64.9744 33.8352 65.554 34.1989C66.1335 34.5625 66.5895 35.0795 66.9219 35.75C67.2543 36.4205 67.4205 37.2159 67.4205 38.1364ZM66.3977 38.1364C66.3977 37.3807 66.2713 36.7429 66.0185 36.223C65.7685 35.7031 65.429 35.3097 65 35.0426C64.5739 34.7756 64.0966 34.642 63.5682 34.642C63.0398 34.642 62.5611 34.7756 62.1321 35.0426C61.706 35.3097 61.3665 35.7031 61.1136 36.223C60.8636 36.7429 60.7386 37.3807 60.7386 38.1364C60.7386 38.892 60.8636 39.5298 61.1136 40.0497C61.3665 40.5696 61.706 40.9631 62.1321 41.2301C62.5611 41.4972 63.0398 41.6307 63.5682 41.6307C64.0966 41.6307 64.5739 41.4972 65 41.2301C65.429 40.9631 65.7685 40.5696 66.0185 40.0497C66.2713 39.5298 66.3977 38.892 66.3977 38.1364Z" fill="#E4E4E4"/>
<rect width="24" height="24" transform="translate(78 26)" fill="#373737"/>
<path d="M85.5568 33.7727H86.8182L89.7841 41.017H89.8864L92.8523 33.7727H94.1136V42.5H93.125V35.8693H93.0398L90.3125 42.5H89.358L86.6307 35.8693H86.5455V42.5H85.5568V33.7727Z" fill="#E4E4E4"/>
<rect width="24" height="24" transform="translate(104 26)" fill="#373737"/>
<path d="M113.057 42.5V33.7727H118.324V34.7102H114.114V37.6591H118.051V38.5966H114.114V41.5625H118.392V42.5H113.057Z" fill="#E4E4E4"/>
<rect x="113" y="47" width="6" height="1" fill="#242424"/>
<rect width="24" height="24" transform="translate(130 26)" fill="#BDBDBD"/>
<path d="M144.523 36.5C144.429 36.2131 144.305 35.956 144.152 35.7287C144.001 35.4986 143.821 35.3026 143.611 35.1406C143.403 34.9787 143.168 34.8551 142.903 34.7699C142.639 34.6847 142.349 34.642 142.034 34.642C141.517 34.642 141.047 34.7756 140.624 35.0426C140.2 35.3097 139.864 35.7031 139.614 36.223C139.364 36.7429 139.239 37.3807 139.239 38.1364C139.239 38.892 139.365 39.5298 139.618 40.0497C139.871 40.5696 140.213 40.9631 140.645 41.2301C141.077 41.4972 141.563 41.6307 142.102 41.6307C142.602 41.6307 143.043 41.5241 143.423 41.3111C143.807 41.0952 144.105 40.7912 144.318 40.3991C144.534 40.0043 144.642 39.5398 144.642 39.0057L144.966 39.0739H142.341V38.1364H145.665V39.0739C145.665 39.7926 145.511 40.4176 145.205 40.9489C144.901 41.4801 144.48 41.892 143.943 42.1847C143.409 42.4744 142.795 42.6193 142.102 42.6193C141.33 42.6193 140.651 42.4375 140.065 42.0739C139.483 41.7102 139.028 41.1932 138.702 40.5227C138.378 39.8523 138.216 39.0568 138.216 38.1364C138.216 37.446 138.308 36.8253 138.493 36.2741C138.68 35.7202 138.945 35.2486 139.286 34.8594C139.626 34.4702 140.03 34.1719 140.496 33.9645C140.962 33.7571 141.474 33.6534 142.034 33.6534C142.494 33.6534 142.923 33.723 143.321 33.8622C143.722 33.9986 144.078 34.1932 144.391 34.446C144.706 34.696 144.969 34.9957 145.179 35.3452C145.389 35.6918 145.534 36.0767 145.614 36.5H144.523Z" fill="#8B8B8B"/>
<rect width="24" height="24" transform="translate(156 26)" fill="#BDBDBD"/>
<path d="M164.557 42.5V33.7727H165.614V37.6591H170.267V33.7727H171.324V42.5H170.267V38.5966H165.614V42.5H164.557Z" fill="#8B8B8B"/>
<rect width="24" height="24" transform="translate(182 26)" fill="#373737"/>
<path d="M191.057 42.5V33.7727H194.006C194.688 33.7727 195.247 33.8892 195.685 34.1222C196.122 34.3523 196.446 34.669 196.656 35.0724C196.866 35.4759 196.972 35.9347 196.972 36.4489C196.972 36.9631 196.866 37.419 196.656 37.8168C196.446 38.2145 196.124 38.527 195.689 38.7543C195.254 38.9787 194.699 39.0909 194.023 39.0909H191.636V38.1364H193.989C194.455 38.1364 194.83 38.0682 195.114 37.9318C195.401 37.7955 195.608 37.6023 195.736 37.3523C195.866 37.0994 195.932 36.7983 195.932 36.4489C195.932 36.0994 195.866 35.794 195.736 35.5327C195.605 35.2713 195.396 35.0696 195.109 34.9276C194.822 34.7827 194.443 34.7102 193.972 34.7102H192.114V42.5H191.057ZM195.165 38.5795L197.312 42.5H196.085L193.972 38.5795H195.165Z" fill="#E4E4E4"/>
<rect x="191" y="47" width="6" height="1" fill="#242424"/>
<rect width="24" height="24" transform="translate(208 26)" fill="#373737"/>
<path d="M223.42 38.1364C223.42 39.0568 223.254 39.8523 222.922 40.5227C222.589 41.1932 222.134 41.7102 221.554 42.0739C220.974 42.4375 220.313 42.6193 219.568 42.6193C218.824 42.6193 218.162 42.4375 217.582 42.0739C217.003 41.7102 216.547 41.1932 216.214 40.5227C215.882 39.8523 215.716 39.0568 215.716 38.1364C215.716 37.2159 215.882 36.4205 216.214 35.75C216.547 35.0795 217.003 34.5625 217.582 34.1989C218.162 33.8352 218.824 33.6534 219.568 33.6534C220.313 33.6534 220.974 33.8352 221.554 34.1989C222.134 34.5625 222.589 35.0795 222.922 35.75C223.254 36.4205 223.42 37.2159 223.42 38.1364ZM222.398 38.1364C222.398 37.3807 222.271 36.7429 222.018 36.223C221.768 35.7031 221.429 35.3097 221 35.0426C220.574 34.7756 220.097 34.642 219.568 34.642C219.04 34.642 218.561 34.7756 218.132 35.0426C217.706 35.3097 217.366 35.7031 217.114 36.223C216.864 36.7429 216.739 37.3807 216.739 38.1364C216.739 38.892 216.864 39.5298 217.114 40.0497C217.366 40.5696 217.706 40.9631 218.132 41.2301C218.561 41.4972 219.04 41.6307 219.568 41.6307C220.097 41.6307 220.574 41.4972 221 41.2301C221.429 40.9631 221.768 40.5696 222.018 40.0497C222.271 39.5298 222.398 38.892 222.398 38.1364Z" fill="#E4E4E4"/>
<rect width="24" height="24" transform="translate(234 26)" fill="#373737"/>
<path d="M242.642 42.5L240.256 33.7727H241.33L243.153 40.8807H243.239L245.097 33.7727H246.29L248.148 40.8807H248.233L250.057 33.7727H251.131L248.744 42.5H247.653L245.727 35.5455H245.659L243.733 42.5H242.642Z" fill="#E4E4E4"/>
<rect width="24" height="24" transform="translate(260 26)" fill="#373737"/>
<path d="M273.83 35.9545C273.778 35.5227 273.571 35.1875 273.207 34.9489C272.844 34.7102 272.398 34.5909 271.869 34.5909C271.483 34.5909 271.145 34.6534 270.855 34.7784C270.568 34.9034 270.344 35.0753 270.182 35.294C270.023 35.5128 269.943 35.7614 269.943 36.0398C269.943 36.2727 269.999 36.473 270.109 36.6406C270.223 36.8054 270.368 36.9432 270.544 37.054C270.72 37.1619 270.905 37.2514 271.098 37.3224C271.291 37.3906 271.469 37.446 271.631 37.4886L272.517 37.7273C272.744 37.7869 272.997 37.8693 273.276 37.9744C273.557 38.0795 273.825 38.223 274.081 38.4048C274.339 38.5838 274.553 38.8139 274.72 39.0952C274.888 39.3764 274.972 39.7216 274.972 40.1307C274.972 40.6023 274.848 41.0284 274.601 41.4091C274.357 41.7898 273.999 42.0923 273.527 42.3168C273.058 42.5412 272.489 42.6534 271.818 42.6534C271.193 42.6534 270.652 42.5526 270.195 42.3509C269.74 42.1491 269.382 41.8679 269.121 41.5071C268.862 41.1463 268.716 40.7273 268.682 40.25H269.773C269.801 40.5795 269.912 40.8523 270.105 41.0682C270.301 41.2812 270.548 41.4403 270.847 41.5455C271.148 41.6477 271.472 41.6989 271.818 41.6989C272.222 41.6989 272.584 41.6335 272.905 41.5028C273.226 41.3693 273.48 41.1847 273.668 40.9489C273.855 40.7102 273.949 40.4318 273.949 40.1136C273.949 39.8239 273.868 39.5881 273.706 39.4062C273.544 39.2244 273.331 39.0767 273.067 38.9631C272.803 38.8494 272.517 38.75 272.21 38.6648L271.136 38.358C270.455 38.1619 269.915 37.8821 269.517 37.5185C269.119 37.1548 268.92 36.679 268.92 36.0909C268.92 35.6023 269.053 35.1761 269.317 34.8125C269.584 34.446 269.942 34.1619 270.391 33.9602C270.842 33.7557 271.347 33.6534 271.903 33.6534C272.466 33.6534 272.966 33.7543 273.403 33.956C273.841 34.1548 274.188 34.4276 274.443 34.7741C274.702 35.1207 274.838 35.5142 274.852 35.9545H273.83Z" fill="#E4E4E4"/>
<rect width="18" height="24" fill="url(#paint0_radial_11_77)"/>
<rect width="24" height="24" transform="translate(20)" fill="url(#paint1_radial_11_77)"/>
<path d="M31.2273 13.7727H32.3864L33.358 15.0511L33.6136 15.392L35.0625 17.3182H33.9034L32.9489 16.0398L32.7102 15.7159L31.2273 13.7727ZM35.4205 12.1364C35.4205 13.0568 35.2543 13.8523 34.9219 14.5227C34.5895 15.1932 34.1335 15.7102 33.554 16.0739C32.9744 16.4375 32.3125 16.6193 31.5682 16.6193C30.8239 16.6193 30.1619 16.4375 29.5824 16.0739C29.0028 15.7102 28.5469 15.1932 28.2145 14.5227C27.8821 13.8523 27.7159 13.0568 27.7159 12.1364C27.7159 11.2159 27.8821 10.4205 28.2145 9.75C28.5469 9.07955 29.0028 8.5625 29.5824 8.19886C30.1619 7.83523 30.8239 7.65341 31.5682 7.65341C32.3125 7.65341 32.9744 7.83523 33.554 8.19886C34.1335 8.5625 34.5895 9.07955 34.9219 9.75C35.2543 10.4205 35.4205 11.2159 35.4205 12.1364ZM34.3977 12.1364C34.3977 11.3807 34.2713 10.7429 34.0185 10.223C33.7685 9.70312 33.429 9.30966 33 9.04261C32.5739 8.77557 32.0966 8.64205 31.5682 8.64205C31.0398 8.64205 30.5611 8.77557 30.1321 9.04261C29.706 9.30966 29.3665 9.70312 29.1136 10.223C28.8636 10.7429 28.7386 11.3807 28.7386 12.1364C28.7386 12.892 28.8636 13.5298 29.1136 14.0497C29.3665 14.5696 29.706 14.9631 30.1321 15.2301C30.5611 15.4972 31.0398 15.6307 31.5682 15.6307C32.0966 15.6307 32.5739 15.4972 33 15.2301C33.429 14.9631 33.7685 14.5696 34.0185 14.0497C34.2713 13.5298 34.3977 12.892 34.3977 12.1364Z" fill="url(#paint2_linear_11_77)"/>
<rect width="24" height="24" transform="translate(46)" fill="url(#paint3_linear_11_77)"/>
<path d="M54.642 16.5L52.2557 7.77273H53.3295L55.1534 14.8807H55.2386L57.0966 7.77273H58.2898L60.1477 14.8807H60.233L62.0568 7.77273H63.1307L60.7443 16.5H59.6534L57.7273 9.54545H57.6591L55.733 16.5H54.642Z" fill="url(#paint4_linear_11_77)"/>
<rect width="24" height="24" transform="translate(72)" fill="url(#paint5_linear_11_77)"/>
<path d="M81.0568 16.5V7.77273H86.3239V8.71023H82.1136V11.6591H86.0511V12.5966H82.1136V15.5625H86.392V16.5H81.0568Z" fill="url(#paint6_linear_11_77)"/>
<rect width="24" height="24" transform="translate(98)" fill="url(#paint7_linear_11_77)"/>
<path d="M107.057 16.5V7.77273H110.006C110.688 7.77273 111.247 7.8892 111.685 8.12216C112.122 8.35227 112.446 8.66903 112.656 9.07244C112.866 9.47585 112.972 9.93466 112.972 10.4489C112.972 10.9631 112.866 11.419 112.656 11.8168C112.446 12.2145 112.124 12.527 111.689 12.7543C111.254 12.9787 110.699 13.0909 110.023 13.0909H107.636V12.1364H109.989C110.455 12.1364 110.83 12.0682 111.114 11.9318C111.401 11.7955 111.608 11.6023 111.736 11.3523C111.866 11.0994 111.932 10.7983 111.932 10.4489C111.932 10.0994 111.866 9.79403 111.736 9.53267C111.605 9.27131 111.396 9.0696 111.109 8.92756C110.822 8.78267 110.443 8.71023 109.972 8.71023H108.114V16.5H107.057ZM111.165 12.5795L113.312 16.5H112.085L109.972 12.5795H111.165Z" fill="url(#paint8_linear_11_77)"/>
<rect width="24" height="24" transform="translate(124)" fill="url(#paint9_linear_11_77)"/>
<path d="M132.58 8.71023V7.77273H139.125V8.71023H136.381V16.5H135.324V8.71023H132.58Z" fill="url(#paint10_linear_11_77)"/>
<rect width="24" height="24" transform="translate(150)" fill="url(#paint11_linear_11_77)"/>
<path d="M158.307 7.77273H159.517L161.938 11.8466H162.04L164.46 7.77273H165.67L162.517 12.9034V16.5H161.46V12.9034L158.307 7.77273Z" fill="url(#paint12_linear_11_77)"/>
<rect width="24" height="24" transform="translate(176)" fill="url(#paint13_linear_11_77)"/>
<path d="M190.284 7.77273H191.341V13.5511C191.341 14.1477 191.2 14.6804 190.919 15.1491C190.641 15.6151 190.247 15.983 189.739 16.2528C189.23 16.5199 188.634 16.6534 187.949 16.6534C187.264 16.6534 186.668 16.5199 186.159 16.2528C185.651 15.983 185.256 15.6151 184.974 15.1491C184.696 14.6804 184.557 14.1477 184.557 13.5511V7.77273H185.614V13.4659C185.614 13.892 185.707 14.2713 185.895 14.6037C186.082 14.9332 186.349 15.1932 186.696 15.3835C187.045 15.571 187.463 15.6648 187.949 15.6648C188.435 15.6648 188.852 15.571 189.202 15.3835C189.551 15.1932 189.818 14.9332 190.003 14.6037C190.19 14.2713 190.284 13.892 190.284 13.4659V7.77273Z" fill="url(#paint14_linear_11_77)"/>
<rect width="24" height="24" transform="translate(202)" fill="url(#paint15_linear_11_77)"/>
<path d="M214.114 7.77273V16.5H213.057V7.77273H214.114Z" fill="url(#paint16_linear_11_77)"/>
<rect width="24" height="24" transform="translate(228)" fill="url(#paint17_linear_11_77)"/>
<path d="M243.42 12.1364C243.42 13.0568 243.254 13.8523 242.922 14.5227C242.589 15.1932 242.134 15.7102 241.554 16.0739C240.974 16.4375 240.313 16.6193 239.568 16.6193C238.824 16.6193 238.162 16.4375 237.582 16.0739C237.003 15.7102 236.547 15.1932 236.214 14.5227C235.882 13.8523 235.716 13.0568 235.716 12.1364C235.716 11.2159 235.882 10.4205 236.214 9.75C236.547 9.07955 237.003 8.5625 237.582 8.19886C238.162 7.83523 238.824 7.65341 239.568 7.65341C240.313 7.65341 240.974 7.83523 241.554 8.19886C242.134 8.5625 242.589 9.07955 242.922 9.75C243.254 10.4205 243.42 11.2159 243.42 12.1364ZM242.398 12.1364C242.398 11.3807 242.271 10.7429 242.018 10.223C241.768 9.70312 241.429 9.30966 241 9.04261C240.574 8.77557 240.097 8.64205 239.568 8.64205C239.04 8.64205 238.561 8.77557 238.132 9.04261C237.706 9.30966 237.366 9.70312 237.114 10.223C236.864 10.7429 236.739 11.3807 236.739 12.1364C236.739 12.892 236.864 13.5298 237.114 14.0497C237.366 14.5696 237.706 14.9631 238.132 15.2301C238.561 15.4972 239.04 15.6307 239.568 15.6307C240.097 15.6307 240.574 15.4972 241 15.2301C241.429 14.9631 241.768 14.5696 242.018 14.0497C242.271 13.5298 242.398 12.892 242.398 12.1364Z" fill="url(#paint18_linear_11_77)"/>
<rect width="24" height="24" transform="translate(254)" fill="url(#paint19_linear_11_77)"/>
<path d="M263.057 16.5V7.77273H266.006C266.69 7.77273 267.25 7.89631 267.685 8.14347C268.122 8.38778 268.446 8.71875 268.656 9.13636C268.866 9.55398 268.972 10.0199 268.972 10.5341C268.972 11.0483 268.866 11.5156 268.656 11.9361C268.449 12.3565 268.128 12.6918 267.693 12.9418C267.259 13.1889 266.702 13.3125 266.023 13.3125H263.909V12.375H265.989C266.457 12.375 266.834 12.294 267.118 12.1321C267.402 11.9702 267.608 11.7514 267.736 11.4759C267.866 11.1974 267.932 10.8835 267.932 10.5341C267.932 10.1847 267.866 9.87216 267.736 9.59659C267.608 9.32102 267.401 9.10511 267.114 8.94886C266.827 8.78977 266.446 8.71023 265.972 8.71023H264.114V16.5H263.057Z" fill="url(#paint20_linear_11_77)"/>
<rect width="24" height="24" transform="translate(280)" fill="url(#paint21_radial_11_77)"/>
<path d="M290.915 18.2727V7.36364H293.438V8.19886H291.869V17.4375H293.438V18.2727H290.915Z" fill="url(#paint22_radial_11_77)"/>
<rect width="4" height="24" transform="translate(306)" fill="url(#paint23_radial_11_77)"/>
<rect width="24" height="24" transform="translate(0 52)" fill="url(#paint24_radial_11_77)"/>
<rect x="24" y="52" width="12" height="24" fill="url(#paint25_linear_11_77)"/>
<rect width="24" height="24" transform="translate(38 52)" fill="url(#paint26_linear_11_77)"/>
<path d="M46.767 68.5V67.733L51.4716 60.7102H46.7159V59.7727H52.733V60.5398L48.0284 67.5625H52.7841V68.5H46.767Z" fill="url(#paint27_linear_11_77)"/>
<rect width="24" height="24" transform="translate(64 52)" fill="url(#paint28_linear_11_77)"/>
<path d="M73.5682 59.7727L75.8182 63.4034H75.8864L78.1364 59.7727H79.3807L76.6364 64.1364L79.3807 68.5H78.1364L75.8864 64.9375H75.8182L73.5682 68.5H72.3239L75.1364 64.1364L72.3239 59.7727H73.5682Z" fill="url(#paint29_linear_11_77)"/>
<rect width="24" height="24" transform="translate(90 52)" fill="url(#paint30_linear_11_77)"/>
<path d="M105.58 62.5H104.523C104.46 62.196 104.351 61.929 104.195 61.6989C104.041 61.4688 103.854 61.2756 103.632 61.1193C103.413 60.9602 103.17 60.8409 102.903 60.7614C102.636 60.6818 102.358 60.642 102.068 60.642C101.54 60.642 101.061 60.7756 100.632 61.0426C100.206 61.3097 99.8665 61.7031 99.6136 62.223C99.3636 62.7429 99.2386 63.3807 99.2386 64.1364C99.2386 64.892 99.3636 65.5298 99.6136 66.0497C99.8665 66.5696 100.206 66.9631 100.632 67.2301C101.061 67.4972 101.54 67.6307 102.068 67.6307C102.358 67.6307 102.636 67.5909 102.903 67.5114C103.17 67.4318 103.413 67.3139 103.632 67.1577C103.854 66.9986 104.041 66.804 104.195 66.5739C104.351 66.3409 104.46 66.0739 104.523 65.7727H105.58C105.5 66.2187 105.355 66.6179 105.145 66.9702C104.935 67.3224 104.673 67.6222 104.361 67.8693C104.048 68.1136 103.697 68.2997 103.308 68.4276C102.922 68.5554 102.509 68.6193 102.068 68.6193C101.324 68.6193 100.662 68.4375 100.082 68.0739C99.5028 67.7102 99.0469 67.1932 98.7145 66.5227C98.3821 65.8523 98.2159 65.0568 98.2159 64.1364C98.2159 63.2159 98.3821 62.4205 98.7145 61.75C99.0469 61.0795 99.5028 60.5625 100.082 60.1989C100.662 59.8352 101.324 59.6534 102.068 59.6534C102.509 59.6534 102.922 59.7173 103.308 59.8452C103.697 59.973 104.048 60.1605 104.361 60.4077C104.673 60.652 104.935 60.9503 105.145 61.3026C105.355 61.652 105.5 62.0511 105.58 62.5Z" fill="url(#paint31_linear_11_77)"/>
<rect width="24" height="24" transform="translate(116 52)" fill="url(#paint32_linear_11_77)"/>
<path d="M124.915 59.7727L127.506 67.1193H127.608L130.199 59.7727H131.307L128.102 68.5H127.011L123.807 59.7727H124.915Z" fill="url(#paint33_linear_11_77)"/>
<rect width="24" height="24" transform="translate(142 52)" fill="url(#paint34_linear_11_77)"/>
<path d="M151.057 68.5V59.7727H154.108C154.716 59.7727 155.217 59.8778 155.612 60.0881C156.007 60.2955 156.301 60.5753 156.494 60.9276C156.688 61.277 156.784 61.6648 156.784 62.0909C156.784 62.4659 156.717 62.7756 156.584 63.0199C156.453 63.2642 156.28 63.4574 156.064 63.5994C155.851 63.7415 155.619 63.8466 155.369 63.9148V64C155.636 64.017 155.905 64.1108 156.175 64.2812C156.445 64.4517 156.67 64.696 156.852 65.0142C157.034 65.3324 157.125 65.7216 157.125 66.1818C157.125 66.6193 157.026 67.0128 156.827 67.3622C156.628 67.7116 156.314 67.9886 155.885 68.1932C155.456 68.3977 154.898 68.5 154.21 68.5H151.057ZM152.114 67.5625H154.21C154.901 67.5625 155.391 67.429 155.68 67.1619C155.973 66.892 156.119 66.5653 156.119 66.1818C156.119 65.8864 156.044 65.6136 155.893 65.3636C155.743 65.1108 155.528 64.9091 155.25 64.7585C154.972 64.6051 154.642 64.5284 154.261 64.5284H152.114V67.5625ZM152.114 63.608H154.074C154.392 63.608 154.679 63.5455 154.935 63.4205C155.193 63.2955 155.398 63.1193 155.548 62.892C155.702 62.6648 155.778 62.3977 155.778 62.0909C155.778 61.7074 155.645 61.3821 155.378 61.1151C155.111 60.8452 154.688 60.7102 154.108 60.7102H152.114V63.608Z" fill="url(#paint35_linear_11_77)"/>
<rect width="24" height="24" transform="translate(168 52)" fill="url(#paint36_linear_11_77)"/>
<path d="M182.977 59.7727V68.5H181.955L177.199 61.6477H177.114V68.5H176.057V59.7727H177.08L181.852 66.642H181.938V59.7727H182.977Z" fill="url(#paint37_linear_11_77)"/>
<rect width="24" height="24" transform="translate(194 52)" fill="url(#paint38_linear_11_77)"/>
<path d="M201.557 59.7727H202.818L205.784 67.017H205.886L208.852 59.7727H210.114V68.5H209.125V61.8693H209.04L206.312 68.5H205.358L202.631 61.8693H202.545V68.5H201.557V59.7727Z" fill="url(#paint39_linear_11_77)"/>
<rect width="24" height="24" transform="translate(220 52)" fill="url(#paint40_linear_11_77)"/>
<path d="M232.42 67.3068L232.352 67.767C232.304 68.0909 232.23 68.4375 232.131 68.8068C232.034 69.1761 231.933 69.5241 231.828 69.8509C231.723 70.1776 231.636 70.4375 231.568 70.6307H230.801C230.838 70.4489 230.886 70.2088 230.946 69.9105C231.006 69.6122 231.065 69.2784 231.125 68.9091C231.188 68.5426 231.239 68.1676 231.278 67.7841L231.33 67.3068H232.42Z" fill="url(#paint41_linear_11_77)"/>
<rect width="24" height="24" transform="translate(246 52)" fill="url(#paint42_linear_11_77)"/>
<path d="M257.653 68.5682C257.443 68.5682 257.263 68.4929 257.112 68.3423C256.962 68.1918 256.886 68.0114 256.886 67.8011C256.886 67.5909 256.962 67.4105 257.112 67.2599C257.263 67.1094 257.443 67.0341 257.653 67.0341C257.864 67.0341 258.044 67.1094 258.195 67.2599C258.345 67.4105 258.42 67.5909 258.42 67.8011C258.42 67.9403 258.385 68.0682 258.314 68.1847C258.246 68.3011 258.153 68.3949 258.037 68.4659C257.923 68.5341 257.795 68.5682 257.653 68.5682Z" fill="url(#paint43_linear_11_77)"/>
<rect width="24" height="24" transform="translate(272 52)" fill="url(#paint44_radial_11_77)"/>
<path d="M285.506 59.3636L282.693 69.8125H281.773L284.585 59.3636H285.506Z" fill="url(#paint45_radial_11_77)"/>
<rect width="11" height="24" transform="translate(298 52)" fill="url(#paint46_radial_11_77)"/>
<rect width="24" height="24" transform="translate(0 26)" fill="url(#paint47_linear_11_77)"/>
<rect width="24" height="24" transform="translate(286 26)" fill="url(#paint48_linear_11_77)"/>
<path d="M297.08 36.5V35.733C297.08 35.5 297.121 35.2528 297.203 34.9915C297.288 34.7273 297.411 34.473 297.57 34.2287C297.732 33.9815 297.926 33.767 298.153 33.5852L298.699 34.0284C298.52 34.2841 298.364 34.5511 298.23 34.8295C298.099 35.1051 298.034 35.4006 298.034 35.7159V36.5H297.08Z" fill="url(#paint49_linear_11_77)"/>
<defs>
<radialGradient id="paint0_radial_11_77" cx="0" cy="0" r="1" gradientUnits="userSpaceOnUse" gradientTransform="translate(24 24) rotate(-90) scale(24 24)">
<stop stop-color="#BDBDBD"/>
<stop offset="1" stop-color="#F0F0F0" stop-opacity="0"/>
</radialGradient>
<radialGradient id="paint1_radial_11_77" cx="0" cy="0" r="1" gradientUnits="userSpaceOnUse" gradientTransform="translate(24 24) rotate(-90) scale(24 104.997)">
<stop offset="0.0818698" stop-color="#BDBDBD"/>
<stop offset="1" stop-color="#F0F0F0" stop-opacity="0"/>
</radialGradient>
<linearGradient id="paint2_linear_11_77" x1="32" y1="24" x2="32" y2="-4.79859e-07" gradientUnits="userSpaceOnUse">
<stop stop-color="#8B8B8B"/>
<stop offset="1" stop-color="#8B8B8B" stop-opacity="0"/>
</linearGradient>
<linearGradient id="paint3_linear_11_77" x1="12" y1="24" x2="12" y2="-3.57628e-07" gradientUnits="userSpaceOnUse">
<stop stop-color="#BDBDBD"/>
<stop offset="1" stop-color="#F0F0F0" stop-opacity="0"/>
</linearGradient>
<linearGradient id="paint4_linear_11_77" x1="58" y1="24" x2="58" y2="-3.4925e-09" gradientUnits="userSpaceOnUse">
<stop stop-color="#8B8B8B"/>
<stop offset="1" stop-color="#8B8B8B" stop-opacity="0"/>
</linearGradient>
<linearGradient id="paint5_linear_11_77" x1="12" y1="24" x2="12" y2="-3.57628e-07" gradientUnits="userSpaceOnUse">
<stop stop-color="#BDBDBD"/>
<stop offset="1" stop-color="#F0F0F0" stop-opacity="0"/>
</linearGradient>
<linearGradient id="paint6_linear_11_77" x1="84" y1="24" x2="84" y2="-3.4925e-09" gradientUnits="userSpaceOnUse">
<stop stop-color="#8B8B8B"/>
<stop offset="1" stop-color="#8B8B8B" stop-opacity="0"/>
</linearGradient>
<linearGradient id="paint7_linear_11_77" x1="12" y1="24" x2="12" y2="-3.57628e-07" gradientUnits="userSpaceOnUse">
<stop stop-color="#BDBDBD"/>
<stop offset="1" stop-color="#F0F0F0" stop-opacity="0"/>
</linearGradient>
<linearGradient id="paint8_linear_11_77" x1="110" y1="24" x2="110" y2="-3.4925e-09" gradientUnits="userSpaceOnUse">
<stop stop-color="#8B8B8B"/>
<stop offset="1" stop-color="#8B8B8B" stop-opacity="0"/>
</linearGradient>
<linearGradient id="paint9_linear_11_77" x1="12" y1="24" x2="12" y2="-3.57628e-07" gradientUnits="userSpaceOnUse">
<stop stop-color="#BDBDBD"/>
<stop offset="1" stop-color="#F0F0F0" stop-opacity="0"/>
</linearGradient>
<linearGradient id="paint10_linear_11_77" x1="136" y1="24" x2="136" y2="-3.4925e-09" gradientUnits="userSpaceOnUse">
<stop stop-color="#8B8B8B"/>
<stop offset="1" stop-color="#8B8B8B" stop-opacity="0"/>
</linearGradient>
<linearGradient id="paint11_linear_11_77" x1="12" y1="24" x2="12" y2="-3.57628e-07" gradientUnits="userSpaceOnUse">
<stop stop-color="#BDBDBD"/>
<stop offset="1" stop-color="#F0F0F0" stop-opacity="0"/>
</linearGradient>
<linearGradient id="paint12_linear_11_77" x1="162" y1="24" x2="162" y2="-3.4925e-09" gradientUnits="userSpaceOnUse">
<stop stop-color="#8B8B8B"/>
<stop offset="1" stop-color="#8B8B8B" stop-opacity="0"/>
</linearGradient>
<linearGradient id="paint13_linear_11_77" x1="12" y1="24" x2="12" y2="-3.57628e-07" gradientUnits="userSpaceOnUse">
<stop stop-color="#BDBDBD"/>
<stop offset="1" stop-color="#F0F0F0" stop-opacity="0"/>
</linearGradient>
<linearGradient id="paint14_linear_11_77" x1="188" y1="24" x2="188" y2="-3.4925e-09" gradientUnits="userSpaceOnUse">
<stop stop-color="#8B8B8B"/>
<stop offset="1" stop-color="#8B8B8B" stop-opacity="0"/>
</linearGradient>
<linearGradient id="paint15_linear_11_77" x1="12" y1="24" x2="12" y2="-3.57628e-07" gradientUnits="userSpaceOnUse">
<stop stop-color="#BDBDBD"/>
<stop offset="1" stop-color="#F0F0F0" stop-opacity="0"/>
</linearGradient>
<linearGradient id="paint16_linear_11_77" x1="214" y1="24" x2="214" y2="-3.4925e-09" gradientUnits="userSpaceOnUse">
<stop stop-color="#8B8B8B"/>
<stop offset="1" stop-color="#8B8B8B" stop-opacity="0"/>
</linearGradient>
<linearGradient id="paint17_linear_11_77" x1="12" y1="24" x2="12" y2="-3.57628e-07" gradientUnits="userSpaceOnUse">
<stop stop-color="#BDBDBD"/>
<stop offset="1" stop-color="#F0F0F0" stop-opacity="0"/>
</linearGradient>
<linearGradient id="paint18_linear_11_77" x1="240" y1="24" x2="240" y2="-3.4925e-09" gradientUnits="userSpaceOnUse">
<stop stop-color="#8B8B8B"/>
<stop offset="1" stop-color="#8B8B8B" stop-opacity="0"/>
</linearGradient>
<linearGradient id="paint19_linear_11_77" x1="12" y1="24" x2="12" y2="-3.57628e-07" gradientUnits="userSpaceOnUse">
<stop stop-color="#BDBDBD"/>
<stop offset="1" stop-color="#F0F0F0" stop-opacity="0"/>
</linearGradient>
<linearGradient id="paint20_linear_11_77" x1="266" y1="24" x2="266" y2="-3.4925e-09" gradientUnits="userSpaceOnUse">
<stop stop-color="#8B8B8B"/>
<stop offset="1" stop-color="#8B8B8B" stop-opacity="0"/>
</linearGradient>
<radialGradient id="paint21_radial_11_77" cx="0" cy="0" r="1" gradientUnits="userSpaceOnUse" gradientTransform="translate(4 24) rotate(-90) scale(24 25.2396)">
<stop stop-color="#BDBDBD"/>
<stop offset="1" stop-color="#F0F0F0" stop-opacity="0"/>
</radialGradient>
<radialGradient id="paint22_radial_11_77" cx="0" cy="0" r="1" gradientUnits="userSpaceOnUse" gradientTransform="translate(284 24) rotate(-90) scale(20 19.9936)">
<stop stop-color="#8B8B8B"/>
<stop offset="1" stop-color="#8B8B8B" stop-opacity="0"/>
</radialGradient>
<radialGradient id="paint23_radial_11_77" cx="0" cy="0" r="1" gradientUnits="userSpaceOnUse" gradientTransform="translate(-20 24) rotate(-90) scale(24)">
<stop stop-color="#BDBDBD"/>
<stop offset="1" stop-color="#F0F0F0" stop-opacity="0"/>
</radialGradient>
<radialGradient id="paint24_radial_11_77" cx="0" cy="0" r="1" gradientUnits="userSpaceOnUse" gradientTransform="translate(24 1.43051e-06) rotate(90) scale(24 24)">
<stop stop-color="#BDBDBD"/>
<stop offset="1" stop-color="#F0F0F0" stop-opacity="0"/>
</radialGradient>
<linearGradient id="paint25_linear_11_77" x1="30" y1="52" x2="30" y2="76" gradientUnits="userSpaceOnUse">
<stop stop-color="#BDBDBD"/>
<stop offset="1" stop-color="#F0F0F0" stop-opacity="0"/>
</linearGradient>
<linearGradient id="paint26_linear_11_77" x1="12" y1="0" x2="12" y2="24" gradientUnits="userSpaceOnUse">
<stop stop-color="#BDBDBD"/>
<stop offset="1" stop-color="#F0F0F0" stop-opacity="0"/>
</linearGradient>
<linearGradient id="paint27_linear_11_77" x1="50" y1="52" x2="50" y2="76" gradientUnits="userSpaceOnUse">
<stop stop-color="#8B8B8B"/>
<stop offset="1" stop-color="#8B8B8B" stop-opacity="0"/>
</linearGradient>
<linearGradient id="paint28_linear_11_77" x1="12" y1="0" x2="12" y2="24" gradientUnits="userSpaceOnUse">
<stop stop-color="#BDBDBD"/>
<stop offset="1" stop-color="#F0F0F0" stop-opacity="0"/>
</linearGradient>
<linearGradient id="paint29_linear_11_77" x1="76" y1="52" x2="76" y2="76" gradientUnits="userSpaceOnUse">
<stop stop-color="#8B8B8B"/>
<stop offset="1" stop-color="#8B8B8B" stop-opacity="0"/>
</linearGradient>
<linearGradient id="paint30_linear_11_77" x1="12" y1="0" x2="12" y2="24" gradientUnits="userSpaceOnUse">
<stop stop-color="#BDBDBD"/>
<stop offset="1" stop-color="#F0F0F0" stop-opacity="0"/>
</linearGradient>
<linearGradient id="paint31_linear_11_77" x1="102" y1="52" x2="102" y2="76" gradientUnits="userSpaceOnUse">
<stop stop-color="#8B8B8B"/>
<stop offset="1" stop-color="#8B8B8B" stop-opacity="0"/>
</linearGradient>
<linearGradient id="paint32_linear_11_77" x1="12" y1="0" x2="12" y2="24" gradientUnits="userSpaceOnUse">
<stop stop-color="#BDBDBD"/>
<stop offset="1" stop-color="#F0F0F0" stop-opacity="0"/>
</linearGradient>
<linearGradient id="paint33_linear_11_77" x1="128" y1="52" x2="128" y2="76" gradientUnits="userSpaceOnUse">
<stop stop-color="#8B8B8B"/>
<stop offset="1" stop-color="#8B8B8B" stop-opacity="0"/>
</linearGradient>
<linearGradient id="paint34_linear_11_77" x1="12" y1="0" x2="12" y2="24" gradientUnits="userSpaceOnUse">
<stop stop-color="#BDBDBD"/>
<stop offset="1" stop-color="#F0F0F0" stop-opacity="0"/>
</linearGradient>
<linearGradient id="paint35_linear_11_77" x1="154" y1="52" x2="154" y2="76" gradientUnits="userSpaceOnUse">
<stop stop-color="#8B8B8B"/>
<stop offset="1" stop-color="#8B8B8B" stop-opacity="0"/>
</linearGradient>
<linearGradient id="paint36_linear_11_77" x1="12" y1="0" x2="12" y2="24" gradientUnits="userSpaceOnUse">
<stop stop-color="#BDBDBD"/>
<stop offset="1" stop-color="#F0F0F0" stop-opacity="0"/>
</linearGradient>
<linearGradient id="paint37_linear_11_77" x1="180" y1="52" x2="180" y2="76" gradientUnits="userSpaceOnUse">
<stop stop-color="#8B8B8B"/>
<stop offset="1" stop-color="#8B8B8B" stop-opacity="0"/>
</linearGradient>
<linearGradient id="paint38_linear_11_77" x1="12" y1="0" x2="12" y2="24" gradientUnits="userSpaceOnUse">
<stop stop-color="#BDBDBD"/>
<stop offset="1" stop-color="#F0F0F0" stop-opacity="0"/>
</linearGradient>
<linearGradient id="paint39_linear_11_77" x1="206" y1="52" x2="206" y2="76" gradientUnits="userSpaceOnUse">
<stop stop-color="#8B8B8B"/>
<stop offset="1" stop-color="#8B8B8B" stop-opacity="0"/>
</linearGradient>
<linearGradient id="paint40_linear_11_77" x1="12" y1="0" x2="12" y2="24" gradientUnits="userSpaceOnUse">
<stop stop-color="#BDBDBD"/>
<stop offset="1" stop-color="#F0F0F0" stop-opacity="0"/>
</linearGradient>
<linearGradient id="paint41_linear_11_77" x1="232" y1="52" x2="232" y2="76" gradientUnits="userSpaceOnUse">
<stop stop-color="#8B8B8B"/>
<stop offset="1" stop-color="#8B8B8B" stop-opacity="0"/>
</linearGradient>
<linearGradient id="paint42_linear_11_77" x1="12" y1="0" x2="12" y2="24" gradientUnits="userSpaceOnUse">
<stop stop-color="#BDBDBD"/>
<stop offset="1" stop-color="#F0F0F0" stop-opacity="0"/>
</linearGradient>
<linearGradient id="paint43_linear_11_77" x1="258" y1="52" x2="258" y2="76" gradientUnits="userSpaceOnUse">
<stop stop-color="#8B8B8B"/>
<stop offset="1" stop-color="#8B8B8B" stop-opacity="0"/>
</linearGradient>
<radialGradient id="paint44_radial_11_77" cx="0" cy="0" r="1" gradientUnits="userSpaceOnUse" gradientTransform="translate(5) rotate(88.0909) scale(30.0167 47.246)">
<stop stop-color="#BDBDBD"/>
<stop offset="0.806896" stop-color="#F0F0F0" stop-opacity="0"/>
</radialGradient>
<radialGradient id="paint45_radial_11_77" cx="0" cy="0" r="1" gradientUnits="userSpaceOnUse" gradientTransform="translate(278.5 51) rotate(83.4802) scale(35.2278 45.5123)">
<stop stop-color="#8B8B8B"/>
<stop offset="1" stop-color="#8B8B8B" stop-opacity="0"/>
</radialGradient>
<radialGradient id="paint46_radial_11_77" cx="0" cy="0" r="1" gradientUnits="userSpaceOnUse" gradientTransform="translate(-12) scale(23 24)">
<stop stop-color="#BDBDBD"/>
<stop offset="1" stop-color="#F0F0F0" stop-opacity="0"/>
</radialGradient>
<linearGradient id="paint47_linear_11_77" x1="24" y1="12" x2="-1.43051e-06" y2="12" gradientUnits="userSpaceOnUse">
<stop stop-color="#BDBDBD"/>
<stop offset="1" stop-color="#F0F0F0" stop-opacity="0"/>
</linearGradient>
<linearGradient id="paint48_linear_11_77" x1="-1.87329e-07" y1="5" x2="24" y2="5" gradientUnits="userSpaceOnUse">
<stop stop-color="#BDBDBD"/>
<stop offset="1" stop-color="#F0F0F0" stop-opacity="0"/>
</linearGradient>
<linearGradient id="paint49_linear_11_77" x1="294" y1="38" x2="302" y2="38" gradientUnits="userSpaceOnUse">
<stop stop-color="#8B8B8B"/>
<stop offset="1" stop-color="#8B8B8B" stop-opacity="0"/>
</linearGradient>
</defs>
</svg>
