<svg width="310" height="76" viewBox="0 0 310 76" fill="none" xmlns="http://www.w3.org/2000/svg">
<rect width="24" height="24" transform="translate(26 26)" fill="#BDBDBD"/>
<path d="M34.4261 33.7727V42.5H33.4205V33.7727H34.4261ZM36.0465 40.7102V39.8409L39.8817 33.7727H40.5124V35.1193H40.0863L37.1886 39.7045V39.7727H42.3533V40.7102H36.0465ZM40.1545 42.5V40.446V40.0412V33.7727H41.1602V42.5H40.1545Z" fill="#242424"/>
<rect width="24" height="24" transform="translate(52 26)" fill="#BDBDBD"/>
<path d="M60.4261 33.7727V42.5H59.4205V33.7727H60.4261ZM65.1999 42.6193C64.6374 42.6193 64.136 42.5227 63.6957 42.3295C63.2582 42.1364 62.9102 41.8679 62.6516 41.5241C62.396 41.1776 62.2567 40.7756 62.234 40.3182H63.3079C63.3306 40.5994 63.4272 40.8423 63.5977 41.0469C63.7681 41.2486 63.9911 41.4048 64.2667 41.5156C64.5423 41.6264 64.8477 41.6818 65.1829 41.6818C65.5579 41.6818 65.8903 41.6165 66.18 41.4858C66.4698 41.3551 66.6971 41.1733 66.8619 40.9403C67.0266 40.7074 67.109 40.4375 67.109 40.1307C67.109 39.8097 67.0295 39.527 66.8704 39.2827C66.7113 39.0355 66.4783 38.8423 66.1715 38.7031C65.8647 38.5639 65.4897 38.4943 65.0465 38.4943H64.3477V37.5568H65.0465C65.3931 37.5568 65.6971 37.4943 65.9585 37.3693C66.2227 37.2443 66.4286 37.0682 66.5763 36.8409C66.7269 36.6136 66.8022 36.3466 66.8022 36.0398C66.8022 35.7443 66.7369 35.4872 66.6062 35.2685C66.4755 35.0497 66.2908 34.8793 66.0522 34.7571C65.8164 34.6349 65.538 34.5739 65.217 34.5739C64.9158 34.5739 64.6317 34.6293 64.3647 34.7401C64.1005 34.848 63.8846 35.0057 63.717 35.2131C63.5494 35.4176 63.4585 35.6648 63.4442 35.9545H62.4215C62.4386 35.4972 62.5763 35.0966 62.8349 34.7528C63.0934 34.4062 63.4315 34.1364 63.8491 33.9432C64.2695 33.75 64.7312 33.6534 65.234 33.6534C65.7738 33.6534 66.2369 33.7628 66.6232 33.9815C67.0096 34.1974 67.3065 34.483 67.5138 34.8381C67.7212 35.1932 67.8249 35.5767 67.8249 35.9886C67.8249 36.4801 67.6957 36.8991 67.4371 37.2457C67.1815 37.5923 66.8335 37.8324 66.3931 37.9659V38.0341C66.9442 38.125 67.3746 38.3594 67.6843 38.7372C67.994 39.1122 68.1488 39.5767 68.1488 40.1307C68.1488 40.6051 68.0195 41.0312 67.761 41.4091C67.5053 41.7841 67.1559 42.0795 66.7127 42.2955C66.2695 42.5114 65.7653 42.6193 65.1999 42.6193Z" fill="#242424"/>
<rect width="24" height="24" transform="translate(78 26)" fill="#BDBDBD"/>
<path d="M86.4261 33.7727V42.5H85.4205V33.7727H86.4261ZM88.2511 42.5V41.733L91.1317 38.5795C91.4698 38.2102 91.7482 37.8892 91.967 37.6165C92.1857 37.3409 92.3477 37.0824 92.4528 36.8409C92.5607 36.5966 92.6147 36.3409 92.6147 36.0739C92.6147 35.767 92.5408 35.5014 92.3931 35.277C92.2482 35.0526 92.0494 34.8793 91.7965 34.7571C91.5437 34.6349 91.2596 34.5739 90.9442 34.5739C90.609 34.5739 90.3164 34.6435 90.0664 34.7827C89.8192 34.919 89.6275 35.1108 89.4911 35.358C89.3576 35.6051 89.2908 35.8949 89.2908 36.2273H88.2852C88.2852 35.7159 88.4031 35.267 88.6388 34.8807C88.8746 34.4943 89.1957 34.1932 89.6019 33.9773C90.011 33.7614 90.4698 33.6534 90.9783 33.6534C91.4897 33.6534 91.9428 33.7614 92.3377 33.9773C92.7326 34.1932 93.0423 34.4844 93.2667 34.8509C93.4911 35.2173 93.6033 35.625 93.6033 36.0739C93.6033 36.3949 93.5451 36.7088 93.4286 37.0156C93.315 37.3196 93.1161 37.6591 92.832 38.0341C92.5508 38.4062 92.1602 38.8608 91.6602 39.3977L89.6999 41.4943V41.5625H93.7567V42.5H88.2511Z" fill="#242424"/>
<rect width="24" height="24" transform="translate(104 26)" fill="#BDBDBD"/>
<path d="M113.426 33.7727V42.5H112.42V33.7727H113.426ZM118.319 33.7727V42.5H117.262V34.8807H117.211L115.081 36.2955V35.2216L117.262 33.7727H118.319Z" fill="#242424"/>
<rect width="24" height="24" transform="translate(130 26)" fill="#BDBDBD"/>
<path d="M138.426 33.7727V42.5H137.42V33.7727H138.426ZM143.098 42.6193C142.456 42.6193 141.909 42.4446 141.457 42.0952C141.005 41.7429 140.66 41.233 140.422 40.5653C140.183 39.8949 140.064 39.0852 140.064 38.1364C140.064 37.1932 140.183 36.3878 140.422 35.7202C140.663 35.0497 141.01 34.5384 141.461 34.1861C141.916 33.831 142.461 33.6534 143.098 33.6534C143.734 33.6534 144.278 33.831 144.73 34.1861C145.184 34.5384 145.531 35.0497 145.77 35.7202C146.011 36.3878 146.132 37.1932 146.132 38.1364C146.132 39.0852 146.012 39.8949 145.774 40.5653C145.535 41.233 145.19 41.7429 144.738 42.0952C144.287 42.4446 143.74 42.6193 143.098 42.6193ZM143.098 41.6818C143.734 41.6818 144.228 41.375 144.581 40.7614C144.933 40.1477 145.109 39.2727 145.109 38.1364C145.109 37.3807 145.028 36.7372 144.866 36.206C144.707 35.6747 144.477 35.2699 144.176 34.9915C143.877 34.7131 143.518 34.5739 143.098 34.5739C142.467 34.5739 141.974 34.8849 141.619 35.5071C141.264 36.1264 141.086 37.0028 141.086 38.1364C141.086 38.892 141.166 39.5341 141.325 40.0625C141.484 40.5909 141.713 40.9929 142.011 41.2685C142.312 41.544 142.674 41.6818 143.098 41.6818Z" fill="#242424"/>
<rect width="24" height="24" transform="translate(156 26)" fill="#BDBDBD"/>
<path d="M162.92 42.5V35.9545H163.892V36.9432H163.96C164.08 36.6193 164.295 36.3565 164.608 36.1548C164.92 35.9531 165.273 35.8523 165.665 35.8523C165.739 35.8523 165.831 35.8537 165.942 35.8565C166.053 35.8594 166.136 35.8636 166.193 35.8693V36.892C166.159 36.8835 166.081 36.8707 165.959 36.8537C165.839 36.8338 165.713 36.8239 165.58 36.8239C165.261 36.8239 164.977 36.8906 164.727 37.0241C164.48 37.1548 164.284 37.3366 164.139 37.5696C163.997 37.7997 163.926 38.0625 163.926 38.358V42.5H162.92ZM170.215 42.6193C169.573 42.6193 169.026 42.4446 168.574 42.0952C168.123 41.7429 167.777 41.233 167.539 40.5653C167.3 39.8949 167.181 39.0852 167.181 38.1364C167.181 37.1932 167.3 36.3878 167.539 35.7202C167.78 35.0497 168.127 34.5384 168.578 34.1861C169.033 33.831 169.578 33.6534 170.215 33.6534C170.851 33.6534 171.395 33.831 171.847 34.1861C172.301 34.5384 172.648 35.0497 172.887 35.7202C173.128 36.3878 173.249 37.1932 173.249 38.1364C173.249 39.0852 173.13 39.8949 172.891 40.5653C172.652 41.233 172.307 41.7429 171.855 42.0952C171.404 42.4446 170.857 42.6193 170.215 42.6193ZM170.215 41.6818C170.851 41.6818 171.346 41.375 171.698 40.7614C172.05 40.1477 172.226 39.2727 172.226 38.1364C172.226 37.3807 172.145 36.7372 171.983 36.206C171.824 35.6747 171.594 35.2699 171.293 34.9915C170.995 34.7131 170.635 34.5739 170.215 34.5739C169.584 34.5739 169.091 34.8849 168.736 35.5071C168.381 36.1264 168.203 37.0028 168.203 38.1364C168.203 38.892 168.283 39.5341 168.442 40.0625C168.601 40.5909 168.83 40.9929 169.128 41.2685C169.429 41.544 169.792 41.6818 170.215 41.6818Z" fill="#242424"/>
<rect width="24" height="24" transform="translate(182 26)" fill="#BDBDBD"/>
<path d="M189.42 42.5V35.9545H190.392V36.9432H190.46C190.58 36.6193 190.795 36.3565 191.108 36.1548C191.42 35.9531 191.773 35.8523 192.165 35.8523C192.239 35.8523 192.331 35.8537 192.442 35.8565C192.553 35.8594 192.636 35.8636 192.693 35.8693V36.892C192.659 36.8835 192.581 36.8707 192.459 36.8537C192.339 36.8338 192.213 36.8239 192.08 36.8239C191.761 36.8239 191.477 36.8906 191.227 37.0241C190.98 37.1548 190.784 37.3366 190.639 37.5696C190.497 37.7997 190.426 38.0625 190.426 38.358V42.5H189.42ZM196.936 33.7727V42.5H195.88V34.8807H195.828L193.698 36.2955V35.2216L195.88 33.7727H196.936Z" fill="#242424"/>
<rect width="24" height="24" transform="translate(208 26)" fill="#BDBDBD"/>
<path d="M214.92 42.5V35.9545H215.892V36.9432H215.96C216.08 36.6193 216.295 36.3565 216.608 36.1548C216.92 35.9531 217.273 35.8523 217.665 35.8523C217.739 35.8523 217.831 35.8537 217.942 35.8565C218.053 35.8594 218.136 35.8636 218.193 35.8693V36.892C218.159 36.8835 218.081 36.8707 217.959 36.8537C217.839 36.8338 217.713 36.8239 217.58 36.8239C217.261 36.8239 216.977 36.8906 216.727 37.0241C216.48 37.1548 216.284 37.3366 216.139 37.5696C215.997 37.7997 215.926 38.0625 215.926 38.358V42.5H214.92ZM219.368 42.5V41.733L222.249 38.5795C222.587 38.2102 222.865 37.8892 223.084 37.6165C223.303 37.3409 223.465 37.0824 223.57 36.8409C223.678 36.5966 223.732 36.3409 223.732 36.0739C223.732 35.767 223.658 35.5014 223.51 35.277C223.365 35.0526 223.167 34.8793 222.914 34.7571C222.661 34.6349 222.377 34.5739 222.061 34.5739C221.726 34.5739 221.434 34.6435 221.184 34.7827C220.936 34.919 220.745 35.1108 220.608 35.358C220.475 35.6051 220.408 35.8949 220.408 36.2273H219.402C219.402 35.7159 219.52 35.267 219.756 34.8807C219.992 34.4943 220.313 34.1932 220.719 33.9773C221.128 33.7614 221.587 33.6534 222.096 33.6534C222.607 33.6534 223.06 33.7614 223.455 33.9773C223.85 34.1932 224.159 34.4844 224.384 34.8509C224.608 35.2173 224.721 35.625 224.721 36.0739C224.721 36.3949 224.662 36.7088 224.546 37.0156C224.432 37.3196 224.233 37.6591 223.949 38.0341C223.668 38.4062 223.277 38.8608 222.777 39.3977L220.817 41.4943V41.5625H224.874V42.5H219.368Z" fill="#242424"/>
<rect width="24" height="24" transform="translate(234 26)" fill="#BDBDBD"/>
<path d="M240.42 42.5V35.9545H241.392V36.9432H241.46C241.58 36.6193 241.795 36.3565 242.108 36.1548C242.42 35.9531 242.773 35.8523 243.165 35.8523C243.239 35.8523 243.331 35.8537 243.442 35.8565C243.553 35.8594 243.636 35.8636 243.693 35.8693V36.892C243.659 36.8835 243.581 36.8707 243.459 36.8537C243.339 36.8338 243.213 36.8239 243.08 36.8239C242.761 36.8239 242.477 36.8906 242.227 37.0241C241.98 37.1548 241.784 37.3366 241.639 37.5696C241.497 37.7997 241.426 38.0625 241.426 38.358V42.5H240.42ZM247.817 42.6193C247.255 42.6193 246.753 42.5227 246.313 42.3295C245.875 42.1364 245.527 41.8679 245.269 41.5241C245.013 41.1776 244.874 40.7756 244.851 40.3182H245.925C245.948 40.5994 246.044 40.8423 246.215 41.0469C246.385 41.2486 246.608 41.4048 246.884 41.5156C247.159 41.6264 247.465 41.6818 247.8 41.6818C248.175 41.6818 248.507 41.6165 248.797 41.4858C249.087 41.3551 249.314 41.1733 249.479 40.9403C249.644 40.7074 249.726 40.4375 249.726 40.1307C249.726 39.8097 249.647 39.527 249.488 39.2827C249.328 39.0355 249.096 38.8423 248.789 38.7031C248.482 38.5639 248.107 38.4943 247.664 38.4943H246.965V37.5568H247.664C248.01 37.5568 248.314 37.4943 248.576 37.3693C248.84 37.2443 249.046 37.0682 249.194 36.8409C249.344 36.6136 249.419 36.3466 249.419 36.0398C249.419 35.7443 249.354 35.4872 249.223 35.2685C249.093 35.0497 248.908 34.8793 248.669 34.7571C248.434 34.6349 248.155 34.5739 247.834 34.5739C247.533 34.5739 247.249 34.6293 246.982 34.7401C246.718 34.848 246.502 35.0057 246.334 35.2131C246.167 35.4176 246.076 35.6648 246.061 35.9545H245.039C245.056 35.4972 245.194 35.0966 245.452 34.7528C245.711 34.4062 246.049 34.1364 246.466 33.9432C246.887 33.75 247.348 33.6534 247.851 33.6534C248.391 33.6534 248.854 33.7628 249.24 33.9815C249.627 34.1974 249.924 34.483 250.131 34.8381C250.338 35.1932 250.442 35.5767 250.442 35.9886C250.442 36.4801 250.313 36.8991 250.054 37.2457C249.799 37.5923 249.451 37.8324 249.01 37.9659V38.0341C249.561 38.125 249.992 38.3594 250.301 38.7372C250.611 39.1122 250.766 39.5767 250.766 40.1307C250.766 40.6051 250.637 41.0312 250.378 41.4091C250.123 41.7841 249.773 42.0795 249.33 42.2955C248.887 42.5114 248.382 42.6193 247.817 42.6193Z" fill="#242424"/>
<rect width="24" height="24" transform="translate(260 26)" fill="#BDBDBD"/>
<path d="M266.42 42.5V35.9545H267.392V36.9432H267.46C267.58 36.6193 267.795 36.3565 268.108 36.1548C268.42 35.9531 268.773 35.8523 269.165 35.8523C269.239 35.8523 269.331 35.8537 269.442 35.8565C269.553 35.8594 269.636 35.8636 269.693 35.8693V36.892C269.659 36.8835 269.581 36.8707 269.459 36.8537C269.339 36.8338 269.213 36.8239 269.08 36.8239C268.761 36.8239 268.477 36.8906 268.227 37.0241C267.98 37.1548 267.784 37.3366 267.639 37.5696C267.497 37.7997 267.426 38.0625 267.426 38.358V42.5H266.42ZM270.664 40.7102V39.8409L274.499 33.7727H275.13V35.1193H274.703L271.806 39.7045V39.7727H276.971V40.7102H270.664ZM274.772 42.5V40.446V40.0412V33.7727H275.777V42.5H274.772Z" fill="#242424"/>
<rect width="18" height="24" fill="#BDBDBD"/>
<rect width="4" height="24" transform="translate(20)" fill="url(#paint0_radial_101_71)"/>
<rect width="20" height="24" transform="translate(24)" fill="url(#paint1_linear_101_71)"/>
<rect width="24" height="24" transform="translate(20)" fill="#BDBDBD"/>
<path d="M26.4261 7.77273V16.5H25.4205V7.77273H26.4261ZM28.0465 14.7102V13.8409L31.8817 7.77273H32.5124V9.11932H32.0863L29.1886 13.7045V13.7727H34.3533V14.7102H28.0465ZM32.1545 16.5V14.446V14.0412V7.77273H33.1602V16.5H32.1545ZM38.8139 9.95455V10.8068H35.4219V9.95455H38.8139ZM36.4105 8.38636H37.4162V14.625C37.4162 14.9091 37.4574 15.1222 37.5398 15.2642C37.625 15.4034 37.733 15.4972 37.8636 15.5455C37.9972 15.5909 38.1378 15.6136 38.2855 15.6136C38.3963 15.6136 38.4872 15.608 38.5582 15.5966C38.6293 15.5824 38.6861 15.571 38.7287 15.5625L38.9332 16.4659C38.8651 16.4915 38.7699 16.517 38.6477 16.5426C38.5256 16.571 38.3707 16.5852 38.1832 16.5852C37.8991 16.5852 37.6207 16.5241 37.348 16.402C37.0781 16.2798 36.8537 16.0938 36.6747 15.8438C36.4986 15.5938 36.4105 15.2784 36.4105 14.8977V8.38636Z" fill="#242424"/>
<rect width="24" height="24" transform="translate(46)" fill="#BDBDBD"/>
<path d="M52.4261 7.77273V16.5H51.4205V7.77273H52.4261ZM57.1999 16.6193C56.6374 16.6193 56.136 16.5227 55.6957 16.3295C55.2582 16.1364 54.9102 15.8679 54.6516 15.5241C54.396 15.1776 54.2567 14.7756 54.234 14.3182H55.3079C55.3306 14.5994 55.4272 14.8423 55.5977 15.0469C55.7681 15.2486 55.9911 15.4048 56.2667 15.5156C56.5423 15.6264 56.8477 15.6818 57.1829 15.6818C57.5579 15.6818 57.8903 15.6165 58.18 15.4858C58.4698 15.3551 58.6971 15.1733 58.8619 14.9403C59.0266 14.7074 59.109 14.4375 59.109 14.1307C59.109 13.8097 59.0295 13.527 58.8704 13.2827C58.7113 13.0355 58.4783 12.8423 58.1715 12.7031C57.8647 12.5639 57.4897 12.4943 57.0465 12.4943H56.3477V11.5568H57.0465C57.3931 11.5568 57.6971 11.4943 57.9585 11.3693C58.2227 11.2443 58.4286 11.0682 58.5763 10.8409C58.7269 10.6136 58.8022 10.3466 58.8022 10.0398C58.8022 9.74432 58.7369 9.48722 58.6062 9.26847C58.4755 9.04972 58.2908 8.87926 58.0522 8.7571C57.8164 8.63494 57.538 8.57386 57.217 8.57386C56.9158 8.57386 56.6317 8.62926 56.3647 8.74006C56.1005 8.84801 55.8846 9.00568 55.717 9.21307C55.5494 9.41761 55.4585 9.66477 55.4442 9.95455H54.4215C54.4386 9.49716 54.5763 9.09659 54.8349 8.75284C55.0934 8.40625 55.4315 8.13636 55.8491 7.94318C56.2695 7.75 56.7312 7.65341 57.234 7.65341C57.7738 7.65341 58.2369 7.76278 58.6232 7.98153C59.0096 8.19744 59.3065 8.48295 59.5138 8.83807C59.7212 9.19318 59.8249 9.5767 59.8249 9.98864C59.8249 10.4801 59.6957 10.8991 59.4371 11.2457C59.1815 11.5923 58.8335 11.8324 58.3931 11.9659V12.0341C58.9442 12.125 59.3746 12.3594 59.6843 12.7372C59.994 13.1122 60.1488 13.5767 60.1488 14.1307C60.1488 14.6051 60.0195 15.0312 59.761 15.4091C59.5053 15.7841 59.1559 16.0795 58.7127 16.2955C58.2695 16.5114 57.7653 16.6193 57.1999 16.6193ZM64.7553 9.95455V10.8068H61.3633V9.95455H64.7553ZM62.3519 8.38636H63.3576V14.625C63.3576 14.9091 63.3988 15.1222 63.4812 15.2642C63.5664 15.4034 63.6744 15.4972 63.805 15.5455C63.9386 15.5909 64.0792 15.6136 64.2269 15.6136C64.3377 15.6136 64.4286 15.608 64.4996 15.5966C64.5707 15.5824 64.6275 15.571 64.6701 15.5625L64.8746 16.4659C64.8065 16.4915 64.7113 16.517 64.5891 16.5426C64.467 16.571 64.3121 16.5852 64.1246 16.5852C63.8406 16.5852 63.5621 16.5241 63.2894 16.402C63.0195 16.2798 62.7951 16.0938 62.6161 15.8438C62.44 15.5938 62.3519 15.2784 62.3519 14.8977V8.38636Z" fill="#242424"/>
<rect width="24" height="24" transform="translate(72)" fill="#BDBDBD"/>
<path d="M78.4261 7.77273V16.5H77.4205V7.77273H78.4261ZM80.2511 16.5V15.733L83.1317 12.5795C83.4698 12.2102 83.7482 11.8892 83.967 11.6165C84.1857 11.3409 84.3477 11.0824 84.4528 10.8409C84.5607 10.5966 84.6147 10.3409 84.6147 10.0739C84.6147 9.76705 84.5408 9.50142 84.3931 9.27699C84.2482 9.05256 84.0494 8.87926 83.7965 8.7571C83.5437 8.63494 83.2596 8.57386 82.9442 8.57386C82.609 8.57386 82.3164 8.64347 82.0664 8.78267C81.8192 8.91903 81.6275 9.1108 81.4911 9.35795C81.3576 9.60511 81.2908 9.89489 81.2908 10.2273H80.2852C80.2852 9.71591 80.4031 9.26705 80.6388 8.88068C80.8746 8.49432 81.1957 8.19318 81.6019 7.97727C82.011 7.76136 82.4698 7.65341 82.9783 7.65341C83.4897 7.65341 83.9428 7.76136 84.3377 7.97727C84.7326 8.19318 85.0423 8.48437 85.2667 8.85085C85.4911 9.21733 85.6033 9.625 85.6033 10.0739C85.6033 10.3949 85.5451 10.7088 85.4286 11.0156C85.315 11.3196 85.1161 11.6591 84.832 12.0341C84.5508 12.4062 84.1602 12.8608 83.6602 13.3977L81.6999 15.4943V15.5625H85.7567V16.5H80.2511ZM90.3803 9.95455V10.8068H86.9883V9.95455H90.3803ZM87.9769 8.38636H88.9826V14.625C88.9826 14.9091 89.0238 15.1222 89.1062 15.2642C89.1914 15.4034 89.2994 15.4972 89.43 15.5455C89.5636 15.5909 89.7042 15.6136 89.8519 15.6136C89.9627 15.6136 90.0536 15.608 90.1246 15.5966C90.1957 15.5824 90.2525 15.571 90.2951 15.5625L90.4996 16.4659C90.4315 16.4915 90.3363 16.517 90.2141 16.5426C90.092 16.571 89.9371 16.5852 89.7496 16.5852C89.4656 16.5852 89.1871 16.5241 88.9144 16.402C88.6445 16.2798 88.4201 16.0938 88.2411 15.8438C88.065 15.5938 87.9769 15.2784 87.9769 14.8977V8.38636Z" fill="#242424"/>
<rect width="24" height="24" transform="translate(98)" fill="#BDBDBD"/>
<path d="M105.426 7.77273V16.5H104.42V7.77273H105.426ZM110.319 7.77273V16.5H109.262V8.88068H109.211L107.081 10.2955V9.22159L109.262 7.77273H110.319ZM115.693 9.95455V10.8068H112.301V9.95455H115.693ZM113.289 8.38636H114.295V14.625C114.295 14.9091 114.336 15.1222 114.419 15.2642C114.504 15.4034 114.612 15.4972 114.743 15.5455C114.876 15.5909 115.017 15.6136 115.164 15.6136C115.275 15.6136 115.366 15.608 115.437 15.5966C115.508 15.5824 115.565 15.571 115.608 15.5625L115.812 16.4659C115.744 16.4915 115.649 16.517 115.527 16.5426C115.404 16.571 115.25 16.5852 115.062 16.5852C114.778 16.5852 114.5 16.5241 114.227 16.402C113.957 16.2798 113.733 16.0938 113.554 15.8438C113.377 15.5938 113.289 15.2784 113.289 14.8977V8.38636Z" fill="#242424"/>
<rect width="24" height="24" transform="translate(124)" fill="#BDBDBD"/>
<path d="M130.426 7.77273V16.5H129.42V7.77273H130.426ZM135.098 16.6193C134.456 16.6193 133.909 16.4446 133.457 16.0952C133.005 15.7429 132.66 15.233 132.422 14.5653C132.183 13.8949 132.064 13.0852 132.064 12.1364C132.064 11.1932 132.183 10.3878 132.422 9.72017C132.663 9.04972 133.01 8.53835 133.461 8.18608C133.916 7.83097 134.461 7.65341 135.098 7.65341C135.734 7.65341 136.278 7.83097 136.73 8.18608C137.184 8.53835 137.531 9.04972 137.77 9.72017C138.011 10.3878 138.132 11.1932 138.132 12.1364C138.132 13.0852 138.012 13.8949 137.774 14.5653C137.535 15.233 137.19 15.7429 136.738 16.0952C136.287 16.4446 135.74 16.6193 135.098 16.6193ZM135.098 15.6818C135.734 15.6818 136.228 15.375 136.581 14.7614C136.933 14.1477 137.109 13.2727 137.109 12.1364C137.109 11.3807 137.028 10.7372 136.866 10.206C136.707 9.67472 136.477 9.26989 136.176 8.99148C135.877 8.71307 135.518 8.57386 135.098 8.57386C134.467 8.57386 133.974 8.88494 133.619 9.5071C133.264 10.1264 133.086 11.0028 133.086 12.1364C133.086 12.892 133.166 13.5341 133.325 14.0625C133.484 14.5909 133.713 14.9929 134.011 15.2685C134.312 15.544 134.674 15.6818 135.098 15.6818ZM142.615 9.95455V10.8068H139.223V9.95455H142.615ZM140.211 8.38636H141.217V14.625C141.217 14.9091 141.258 15.1222 141.341 15.2642C141.426 15.4034 141.534 15.4972 141.664 15.5455C141.798 15.5909 141.939 15.6136 142.086 15.6136C142.197 15.6136 142.288 15.608 142.359 15.5966C142.43 15.5824 142.487 15.571 142.529 15.5625L142.734 16.4659C142.666 16.4915 142.571 16.517 142.449 16.5426C142.326 16.571 142.172 16.5852 141.984 16.5852C141.7 16.5852 141.422 16.5241 141.149 16.402C140.879 16.2798 140.654 16.0938 140.475 15.8438C140.299 15.5938 140.211 15.2784 140.211 14.8977V8.38636Z" fill="#242424"/>
<rect width="24" height="24" transform="translate(150)" fill="#BDBDBD"/>
<path d="M154.42 16.5V9.95455H155.392V10.9432H155.46C155.58 10.6193 155.795 10.3565 156.108 10.1548C156.42 9.95312 156.773 9.85227 157.165 9.85227C157.239 9.85227 157.331 9.85369 157.442 9.85653C157.553 9.85937 157.636 9.86364 157.693 9.86932V10.892C157.659 10.8835 157.581 10.8707 157.459 10.8537C157.339 10.8338 157.213 10.8239 157.08 10.8239C156.761 10.8239 156.477 10.8906 156.227 11.0241C155.98 11.1548 155.784 11.3366 155.639 11.5696C155.497 11.7997 155.426 12.0625 155.426 12.358V16.5H154.42ZM161.715 16.6193C161.073 16.6193 160.526 16.4446 160.074 16.0952C159.623 15.7429 159.277 15.233 159.039 14.5653C158.8 13.8949 158.681 13.0852 158.681 12.1364C158.681 11.1932 158.8 10.3878 159.039 9.72017C159.28 9.04972 159.627 8.53835 160.078 8.18608C160.533 7.83097 161.078 7.65341 161.715 7.65341C162.351 7.65341 162.895 7.83097 163.347 8.18608C163.801 8.53835 164.148 9.04972 164.387 9.72017C164.628 10.3878 164.749 11.1932 164.749 12.1364C164.749 13.0852 164.63 13.8949 164.391 14.5653C164.152 15.233 163.807 15.7429 163.355 16.0952C162.904 16.4446 162.357 16.6193 161.715 16.6193ZM161.715 15.6818C162.351 15.6818 162.846 15.375 163.198 14.7614C163.55 14.1477 163.726 13.2727 163.726 12.1364C163.726 11.3807 163.645 10.7372 163.483 10.206C163.324 9.67472 163.094 9.26989 162.793 8.99148C162.495 8.71307 162.135 8.57386 161.715 8.57386C161.084 8.57386 160.591 8.88494 160.236 9.5071C159.881 10.1264 159.703 11.0028 159.703 12.1364C159.703 12.892 159.783 13.5341 159.942 14.0625C160.101 14.5909 160.33 14.9929 160.628 15.2685C160.929 15.544 161.292 15.6818 161.715 15.6818ZM169.232 9.95455V10.8068H165.84V9.95455H169.232ZM166.828 8.38636H167.834V14.625C167.834 14.9091 167.875 15.1222 167.958 15.2642C168.043 15.4034 168.151 15.4972 168.282 15.5455C168.415 15.5909 168.556 15.6136 168.703 15.6136C168.814 15.6136 168.905 15.608 168.976 15.5966C169.047 15.5824 169.104 15.571 169.147 15.5625L169.351 16.4659C169.283 16.4915 169.188 16.517 169.066 16.5426C168.944 16.571 168.789 16.5852 168.601 16.5852C168.317 16.5852 168.039 16.5241 167.766 16.402C167.496 16.2798 167.272 16.0938 167.093 15.8438C166.917 15.5938 166.828 15.2784 166.828 14.8977V8.38636Z" fill="#242424"/>
<rect width="24" height="24" transform="translate(176)" fill="#BDBDBD"/>
<path d="M181.42 16.5V9.95455H182.392V10.9432H182.46C182.58 10.6193 182.795 10.3565 183.108 10.1548C183.42 9.95312 183.773 9.85227 184.165 9.85227C184.239 9.85227 184.331 9.85369 184.442 9.85653C184.553 9.85937 184.636 9.86364 184.693 9.86932V10.892C184.659 10.8835 184.581 10.8707 184.459 10.8537C184.339 10.8338 184.213 10.8239 184.08 10.8239C183.761 10.8239 183.477 10.8906 183.227 11.0241C182.98 11.1548 182.784 11.3366 182.639 11.5696C182.497 11.7997 182.426 12.0625 182.426 12.358V16.5H181.42ZM188.936 7.77273V16.5H187.88V8.88068H187.828L185.698 10.2955V9.22159L187.88 7.77273H188.936ZM194.31 9.95455V10.8068H190.918V9.95455H194.31ZM191.907 8.38636H192.912V14.625C192.912 14.9091 192.953 15.1222 193.036 15.2642C193.121 15.4034 193.229 15.4972 193.36 15.5455C193.493 15.5909 193.634 15.6136 193.782 15.6136C193.892 15.6136 193.983 15.608 194.054 15.5966C194.125 15.5824 194.182 15.571 194.225 15.5625L194.429 16.4659C194.361 16.4915 194.266 16.517 194.144 16.5426C194.022 16.571 193.867 16.5852 193.679 16.5852C193.395 16.5852 193.117 16.5241 192.844 16.402C192.574 16.2798 192.35 16.0938 192.171 15.8438C191.995 15.5938 191.907 15.2784 191.907 14.8977V8.38636Z" fill="#242424"/>
<rect width="24" height="24" transform="translate(202)" fill="#BDBDBD"/>
<path d="M206.42 16.5V9.95455H207.392V10.9432H207.46C207.58 10.6193 207.795 10.3565 208.108 10.1548C208.42 9.95312 208.773 9.85227 209.165 9.85227C209.239 9.85227 209.331 9.85369 209.442 9.85653C209.553 9.85937 209.636 9.86364 209.693 9.86932V10.892C209.659 10.8835 209.581 10.8707 209.459 10.8537C209.339 10.8338 209.213 10.8239 209.08 10.8239C208.761 10.8239 208.477 10.8906 208.227 11.0241C207.98 11.1548 207.784 11.3366 207.639 11.5696C207.497 11.7997 207.426 12.0625 207.426 12.358V16.5H206.42ZM210.868 16.5V15.733L213.749 12.5795C214.087 12.2102 214.365 11.8892 214.584 11.6165C214.803 11.3409 214.965 11.0824 215.07 10.8409C215.178 10.5966 215.232 10.3409 215.232 10.0739C215.232 9.76705 215.158 9.50142 215.01 9.27699C214.865 9.05256 214.667 8.87926 214.414 8.7571C214.161 8.63494 213.877 8.57386 213.561 8.57386C213.226 8.57386 212.934 8.64347 212.684 8.78267C212.436 8.91903 212.245 9.1108 212.108 9.35795C211.975 9.60511 211.908 9.89489 211.908 10.2273H210.902C210.902 9.71591 211.02 9.26705 211.256 8.88068C211.492 8.49432 211.813 8.19318 212.219 7.97727C212.628 7.76136 213.087 7.65341 213.596 7.65341C214.107 7.65341 214.56 7.76136 214.955 7.97727C215.35 8.19318 215.659 8.48437 215.884 8.85085C216.108 9.21733 216.221 9.625 216.221 10.0739C216.221 10.3949 216.162 10.7088 216.046 11.0156C215.932 11.3196 215.733 11.6591 215.449 12.0341C215.168 12.4062 214.777 12.8608 214.277 13.3977L212.317 15.4943V15.5625H216.374V16.5H210.868ZM220.998 9.95455V10.8068H217.605V9.95455H220.998ZM218.594 8.38636H219.6V14.625C219.6 14.9091 219.641 15.1222 219.723 15.2642C219.809 15.4034 219.917 15.4972 220.047 15.5455C220.181 15.5909 220.321 15.6136 220.469 15.6136C220.58 15.6136 220.671 15.608 220.742 15.5966C220.813 15.5824 220.87 15.571 220.912 15.5625L221.117 16.4659C221.049 16.4915 220.953 16.517 220.831 16.5426C220.709 16.571 220.554 16.5852 220.367 16.5852C220.083 16.5852 219.804 16.5241 219.532 16.402C219.262 16.2798 219.037 16.0938 218.858 15.8438C218.682 15.5938 218.594 15.2784 218.594 14.8977V8.38636Z" fill="#242424"/>
<rect width="24" height="24" transform="translate(228)" fill="#BDBDBD"/>
<path d="M232.42 16.5V9.95455H233.392V10.9432H233.46C233.58 10.6193 233.795 10.3565 234.108 10.1548C234.42 9.95312 234.773 9.85227 235.165 9.85227C235.239 9.85227 235.331 9.85369 235.442 9.85653C235.553 9.85937 235.636 9.86364 235.693 9.86932V10.892C235.659 10.8835 235.581 10.8707 235.459 10.8537C235.339 10.8338 235.213 10.8239 235.08 10.8239C234.761 10.8239 234.477 10.8906 234.227 11.0241C233.98 11.1548 233.784 11.3366 233.639 11.5696C233.497 11.7997 233.426 12.0625 233.426 12.358V16.5H232.42ZM239.817 16.6193C239.255 16.6193 238.753 16.5227 238.313 16.3295C237.875 16.1364 237.527 15.8679 237.269 15.5241C237.013 15.1776 236.874 14.7756 236.851 14.3182H237.925C237.948 14.5994 238.044 14.8423 238.215 15.0469C238.385 15.2486 238.608 15.4048 238.884 15.5156C239.159 15.6264 239.465 15.6818 239.8 15.6818C240.175 15.6818 240.507 15.6165 240.797 15.4858C241.087 15.3551 241.314 15.1733 241.479 14.9403C241.644 14.7074 241.726 14.4375 241.726 14.1307C241.726 13.8097 241.647 13.527 241.488 13.2827C241.328 13.0355 241.096 12.8423 240.789 12.7031C240.482 12.5639 240.107 12.4943 239.664 12.4943H238.965V11.5568H239.664C240.01 11.5568 240.314 11.4943 240.576 11.3693C240.84 11.2443 241.046 11.0682 241.194 10.8409C241.344 10.6136 241.419 10.3466 241.419 10.0398C241.419 9.74432 241.354 9.48722 241.223 9.26847C241.093 9.04972 240.908 8.87926 240.669 8.7571C240.434 8.63494 240.155 8.57386 239.834 8.57386C239.533 8.57386 239.249 8.62926 238.982 8.74006C238.718 8.84801 238.502 9.00568 238.334 9.21307C238.167 9.41761 238.076 9.66477 238.061 9.95455H237.039C237.056 9.49716 237.194 9.09659 237.452 8.75284C237.711 8.40625 238.049 8.13636 238.466 7.94318C238.887 7.75 239.348 7.65341 239.851 7.65341C240.391 7.65341 240.854 7.76278 241.24 7.98153C241.627 8.19744 241.924 8.48295 242.131 8.83807C242.338 9.19318 242.442 9.5767 242.442 9.98864C242.442 10.4801 242.313 10.8991 242.054 11.2457C241.799 11.5923 241.451 11.8324 241.01 11.9659V12.0341C241.561 12.125 241.992 12.3594 242.301 12.7372C242.611 13.1122 242.766 13.5767 242.766 14.1307C242.766 14.6051 242.637 15.0312 242.378 15.4091C242.123 15.7841 241.773 16.0795 241.33 16.2955C240.887 16.5114 240.382 16.6193 239.817 16.6193ZM247.373 9.95455V10.8068H243.98V9.95455H247.373ZM244.969 8.38636H245.975V14.625C245.975 14.9091 246.016 15.1222 246.098 15.2642C246.184 15.4034 246.292 15.4972 246.422 15.5455C246.556 15.5909 246.696 15.6136 246.844 15.6136C246.955 15.6136 247.046 15.608 247.117 15.5966C247.188 15.5824 247.245 15.571 247.287 15.5625L247.492 16.4659C247.424 16.4915 247.328 16.517 247.206 16.5426C247.084 16.571 246.929 16.5852 246.742 16.5852C246.458 16.5852 246.179 16.5241 245.907 16.402C245.637 16.2798 245.412 16.0938 245.233 15.8438C245.057 15.5938 244.969 15.2784 244.969 14.8977V8.38636Z" fill="#242424"/>
<rect width="24" height="24" transform="translate(254)" fill="#BDBDBD"/>
<path d="M258.42 16.5V9.95455H259.392V10.9432H259.46C259.58 10.6193 259.795 10.3565 260.108 10.1548C260.42 9.95312 260.773 9.85227 261.165 9.85227C261.239 9.85227 261.331 9.85369 261.442 9.85653C261.553 9.85937 261.636 9.86364 261.693 9.86932V10.892C261.659 10.8835 261.581 10.8707 261.459 10.8537C261.339 10.8338 261.213 10.8239 261.08 10.8239C260.761 10.8239 260.477 10.8906 260.227 11.0241C259.98 11.1548 259.784 11.3366 259.639 11.5696C259.497 11.7997 259.426 12.0625 259.426 12.358V16.5H258.42ZM262.664 14.7102V13.8409L266.499 7.77273H267.13V9.11932H266.703L263.806 13.7045V13.7727H268.971V14.7102H262.664ZM266.772 16.5V14.446V14.0412V7.77273H267.777V16.5H266.772ZM273.431 9.95455V10.8068H270.039V9.95455H273.431ZM271.028 8.38636H272.033V14.625C272.033 14.9091 272.075 15.1222 272.157 15.2642C272.242 15.4034 272.35 15.4972 272.481 15.5455C272.614 15.5909 272.755 15.6136 272.903 15.6136C273.013 15.6136 273.104 15.608 273.175 15.5966C273.246 15.5824 273.303 15.571 273.346 15.5625L273.55 16.4659C273.482 16.4915 273.387 16.517 273.265 16.5426C273.143 16.571 272.988 16.5852 272.8 16.5852C272.516 16.5852 272.238 16.5241 271.965 16.402C271.695 16.2798 271.471 16.0938 271.292 15.8438C271.116 15.5938 271.028 15.2784 271.028 14.8977V8.38636Z" fill="#242424"/>
<rect width="6" height="24" transform="translate(280)" fill="url(#paint2_linear_101_71)"/>
<rect width="18" height="24" transform="translate(286)" fill="url(#paint3_radial_101_71)"/>
<rect width="24" height="24" transform="translate(280)" fill="#BDBDBD"/>
<path d="M290.915 18.2727V7.36364H293.438V8.19886H291.869V17.4375H293.438V18.2727H290.915Z" fill="#242424"/>
<rect width="4" height="24" transform="translate(306)" fill="#BDBDBD"/>
<rect width="24" height="24" transform="translate(0 52)" fill="#BDBDBD"/>
<rect x="24" y="52" width="12" height="24" fill="#BDBDBD"/>
<rect width="24" height="24" transform="translate(38 52)" fill="#BDBDBD"/>
<path d="M42.9261 59.7727V68.5H41.9205V59.7727H42.9261ZM44.5465 66.7102V65.8409L48.3817 59.7727H49.0124V61.1193H48.5863L45.6886 65.7045V65.7727H50.8533V66.7102H44.5465ZM48.6545 68.5V66.446V66.0412V59.7727H49.6602V68.5H48.6545ZM52.6037 68.5V59.7727H53.6094V62.9943H53.6946C53.7685 62.8807 53.8707 62.7358 54.0014 62.5597C54.1349 62.3807 54.3253 62.2216 54.5724 62.0824C54.8224 61.9403 55.1605 61.8693 55.5866 61.8693C56.1378 61.8693 56.6236 62.0071 57.044 62.2827C57.4645 62.5582 57.7926 62.9489 58.0284 63.4545C58.2642 63.9602 58.3821 64.5568 58.3821 65.2443C58.3821 65.9375 58.2642 66.5384 58.0284 67.0469C57.7926 67.5526 57.4659 67.9446 57.0483 68.223C56.6307 68.4986 56.1491 68.6364 55.6037 68.6364C55.1832 68.6364 54.8466 68.5668 54.5938 68.4276C54.3409 68.2855 54.1463 68.125 54.0099 67.946C53.8736 67.7642 53.7685 67.6136 53.6946 67.4943H53.5753V68.5H52.6037ZM53.5923 65.2273C53.5923 65.7216 53.6648 66.1577 53.8097 66.5355C53.9545 66.9105 54.1662 67.2045 54.4446 67.4176C54.723 67.6278 55.0639 67.733 55.4673 67.733C55.8878 67.733 56.2386 67.6222 56.5199 67.4006C56.804 67.1761 57.017 66.875 57.1591 66.4972C57.304 66.1165 57.3764 65.6932 57.3764 65.2273C57.3764 64.767 57.3054 64.3523 57.1634 63.983C57.0241 63.6108 56.8125 63.3168 56.5284 63.1009C56.2472 62.8821 55.8935 62.7727 55.4673 62.7727C55.0582 62.7727 54.7145 62.8764 54.4361 63.0838C54.1577 63.2884 53.9474 63.5753 53.8054 63.9446C53.6634 64.3111 53.5923 64.7386 53.5923 65.2273Z" fill="#242424"/>
<rect width="24" height="24" transform="translate(64 52)" fill="#BDBDBD"/>
<path d="M68.9261 59.7727V68.5H67.9205V59.7727H68.9261ZM73.6999 68.6193C73.1374 68.6193 72.636 68.5227 72.1957 68.3295C71.7582 68.1364 71.4102 67.8679 71.1516 67.5241C70.896 67.1776 70.7567 66.7756 70.734 66.3182H71.8079C71.8306 66.5994 71.9272 66.8423 72.0977 67.0469C72.2681 67.2486 72.4911 67.4048 72.7667 67.5156C73.0423 67.6264 73.3477 67.6818 73.6829 67.6818C74.0579 67.6818 74.3903 67.6165 74.68 67.4858C74.9698 67.3551 75.1971 67.1733 75.3619 66.9403C75.5266 66.7074 75.609 66.4375 75.609 66.1307C75.609 65.8097 75.5295 65.527 75.3704 65.2827C75.2113 65.0355 74.9783 64.8423 74.6715 64.7031C74.3647 64.5639 73.9897 64.4943 73.5465 64.4943H72.8477V63.5568H73.5465C73.8931 63.5568 74.1971 63.4943 74.4585 63.3693C74.7227 63.2443 74.9286 63.0682 75.0763 62.8409C75.2269 62.6136 75.3022 62.3466 75.3022 62.0398C75.3022 61.7443 75.2369 61.4872 75.1062 61.2685C74.9755 61.0497 74.7908 60.8793 74.5522 60.7571C74.3164 60.6349 74.038 60.5739 73.717 60.5739C73.4158 60.5739 73.1317 60.6293 72.8647 60.7401C72.6005 60.848 72.3846 61.0057 72.217 61.2131C72.0494 61.4176 71.9585 61.6648 71.9442 61.9545H70.9215C70.9386 61.4972 71.0763 61.0966 71.3349 60.7528C71.5934 60.4062 71.9315 60.1364 72.3491 59.9432C72.7695 59.75 73.2312 59.6534 73.734 59.6534C74.2738 59.6534 74.7369 59.7628 75.1232 59.9815C75.5096 60.1974 75.8065 60.483 76.0138 60.8381C76.2212 61.1932 76.3249 61.5767 76.3249 61.9886C76.3249 62.4801 76.1957 62.8991 75.9371 63.2457C75.6815 63.5923 75.3335 63.8324 74.8931 63.9659V64.0341C75.4442 64.125 75.8746 64.3594 76.1843 64.7372C76.494 65.1122 76.6488 65.5767 76.6488 66.1307C76.6488 66.6051 76.5195 67.0312 76.261 67.4091C76.0053 67.7841 75.6559 68.0795 75.2127 68.2955C74.7695 68.5114 74.2653 68.6193 73.6999 68.6193ZM78.5451 68.5V59.7727H79.5508V62.9943H79.636C79.7099 62.8807 79.8121 62.7358 79.9428 62.5597C80.0763 62.3807 80.2667 62.2216 80.5138 62.0824C80.7638 61.9403 81.1019 61.8693 81.5281 61.8693C82.0792 61.8693 82.565 62.0071 82.9854 62.2827C83.4059 62.5582 83.734 62.9489 83.9698 63.4545C84.2056 63.9602 84.3235 64.5568 84.3235 65.2443C84.3235 65.9375 84.2056 66.5384 83.9698 67.0469C83.734 67.5526 83.4073 67.9446 82.9897 68.223C82.5721 68.4986 82.0906 68.6364 81.5451 68.6364C81.1246 68.6364 80.788 68.5668 80.5352 68.4276C80.2823 68.2855 80.0877 68.125 79.9513 67.946C79.815 67.7642 79.7099 67.6136 79.636 67.4943H79.5167V68.5H78.5451ZM79.5337 65.2273C79.5337 65.7216 79.6062 66.1577 79.7511 66.5355C79.896 66.9105 80.1076 67.2045 80.386 67.4176C80.6644 67.6278 81.0053 67.733 81.4087 67.733C81.8292 67.733 82.18 67.6222 82.4613 67.4006C82.7454 67.1761 82.9585 66.875 83.1005 66.4972C83.2454 66.1165 83.3178 65.6932 83.3178 65.2273C83.3178 64.767 83.2468 64.3523 83.1048 63.983C82.9656 63.6108 82.7539 63.3168 82.4698 63.1009C82.1886 62.8821 81.8349 62.7727 81.4087 62.7727C80.9996 62.7727 80.6559 62.8764 80.3775 63.0838C80.0991 63.2884 79.8888 63.5753 79.7468 63.9446C79.6048 64.3111 79.5337 64.7386 79.5337 65.2273Z" fill="#242424"/>
<rect width="24" height="24" transform="translate(90 52)" fill="#BDBDBD"/>
<path d="M94.9261 59.7727V68.5H93.9205V59.7727H94.9261ZM96.7511 68.5V67.733L99.6317 64.5795C99.9698 64.2102 100.248 63.8892 100.467 63.6165C100.686 63.3409 100.848 63.0824 100.953 62.8409C101.061 62.5966 101.115 62.3409 101.115 62.0739C101.115 61.767 101.041 61.5014 100.893 61.277C100.748 61.0526 100.549 60.8793 100.297 60.7571C100.044 60.6349 99.7596 60.5739 99.4442 60.5739C99.109 60.5739 98.8164 60.6435 98.5664 60.7827C98.3192 60.919 98.1275 61.1108 97.9911 61.358C97.8576 61.6051 97.7908 61.8949 97.7908 62.2273H96.7852C96.7852 61.7159 96.9031 61.267 97.1388 60.8807C97.3746 60.4943 97.6957 60.1932 98.1019 59.9773C98.511 59.7614 98.9698 59.6534 99.4783 59.6534C99.9897 59.6534 100.443 59.7614 100.838 59.9773C101.233 60.1932 101.542 60.4844 101.767 60.8509C101.991 61.2173 102.103 61.625 102.103 62.0739C102.103 62.3949 102.045 62.7088 101.929 63.0156C101.815 63.3196 101.616 63.6591 101.332 64.0341C101.051 64.4062 100.66 64.8608 100.16 65.3977L98.1999 67.4943V67.5625H102.257V68.5H96.7511ZM104.17 68.5V59.7727H105.176V62.9943H105.261C105.335 62.8807 105.437 62.7358 105.568 62.5597C105.701 62.3807 105.892 62.2216 106.139 62.0824C106.389 61.9403 106.727 61.8693 107.153 61.8693C107.704 61.8693 108.19 62.0071 108.61 62.2827C109.031 62.5582 109.359 62.9489 109.595 63.4545C109.831 63.9602 109.949 64.5568 109.949 65.2443C109.949 65.9375 109.831 66.5384 109.595 67.0469C109.359 67.5526 109.032 67.9446 108.615 68.223C108.197 68.4986 107.716 68.6364 107.17 68.6364C106.75 68.6364 106.413 68.5668 106.16 68.4276C105.907 68.2855 105.713 68.125 105.576 67.946C105.44 67.7642 105.335 67.6136 105.261 67.4943H105.142V68.5H104.17ZM105.159 65.2273C105.159 65.7216 105.231 66.1577 105.376 66.5355C105.521 66.9105 105.733 67.2045 106.011 67.4176C106.289 67.6278 106.63 67.733 107.034 67.733C107.454 67.733 107.805 67.6222 108.086 67.4006C108.37 67.1761 108.583 66.875 108.725 66.4972C108.87 66.1165 108.943 65.6932 108.943 65.2273C108.943 64.767 108.872 64.3523 108.73 63.983C108.591 63.6108 108.379 63.3168 108.095 63.1009C107.814 62.8821 107.46 62.7727 107.034 62.7727C106.625 62.7727 106.281 62.8764 106.002 63.0838C105.724 63.2884 105.514 63.5753 105.372 63.9446C105.23 64.3111 105.159 64.7386 105.159 65.2273Z" fill="#242424"/>
<rect width="24" height="24" transform="translate(116 52)" fill="#BDBDBD"/>
<path d="M121.926 59.7727V68.5H120.92V59.7727H121.926ZM126.819 59.7727V68.5H125.762V60.8807H125.711L123.581 62.2955V61.2216L125.762 59.7727H126.819ZM129.483 68.5V59.7727H130.488V62.9943H130.574C130.647 62.8807 130.75 62.7358 130.88 62.5597C131.014 62.3807 131.204 62.2216 131.451 62.0824C131.701 61.9403 132.039 61.8693 132.466 61.8693C133.017 61.8693 133.502 62.0071 133.923 62.2827C134.343 62.5582 134.672 62.9489 134.907 63.4545C135.143 63.9602 135.261 64.5568 135.261 65.2443C135.261 65.9375 135.143 66.5384 134.907 67.0469C134.672 67.5526 134.345 67.9446 133.927 68.223C133.51 68.4986 133.028 68.6364 132.483 68.6364C132.062 68.6364 131.725 68.5668 131.473 68.4276C131.22 68.2855 131.025 68.125 130.889 67.946C130.752 67.7642 130.647 67.6136 130.574 67.4943H130.454V68.5H129.483ZM130.471 65.2273C130.471 65.7216 130.544 66.1577 130.689 66.5355C130.833 66.9105 131.045 67.2045 131.324 67.4176C131.602 67.6278 131.943 67.733 132.346 67.733C132.767 67.733 133.118 67.6222 133.399 67.4006C133.683 67.1761 133.896 66.875 134.038 66.4972C134.183 66.1165 134.255 65.6932 134.255 65.2273C134.255 64.767 134.184 64.3523 134.042 63.983C133.903 63.6108 133.691 63.3168 133.407 63.1009C133.126 62.8821 132.772 62.7727 132.346 62.7727C131.937 62.7727 131.593 62.8764 131.315 63.0838C131.037 63.2884 130.826 63.5753 130.684 63.9446C130.542 64.3111 130.471 64.7386 130.471 65.2273Z" fill="#242424"/>
<rect width="24" height="24" transform="translate(142 52)" fill="#BDBDBD"/>
<path d="M146.926 59.7727V68.5H145.92V59.7727H146.926ZM151.598 68.6193C150.956 68.6193 150.409 68.4446 149.957 68.0952C149.505 67.7429 149.16 67.233 148.922 66.5653C148.683 65.8949 148.564 65.0852 148.564 64.1364C148.564 63.1932 148.683 62.3878 148.922 61.7202C149.163 61.0497 149.51 60.5384 149.961 60.1861C150.416 59.831 150.961 59.6534 151.598 59.6534C152.234 59.6534 152.778 59.831 153.23 60.1861C153.684 60.5384 154.031 61.0497 154.27 61.7202C154.511 62.3878 154.632 63.1932 154.632 64.1364C154.632 65.0852 154.512 65.8949 154.274 66.5653C154.035 67.233 153.69 67.7429 153.238 68.0952C152.787 68.4446 152.24 68.6193 151.598 68.6193ZM151.598 67.6818C152.234 67.6818 152.728 67.375 153.081 66.7614C153.433 66.1477 153.609 65.2727 153.609 64.1364C153.609 63.3807 153.528 62.7372 153.366 62.206C153.207 61.6747 152.977 61.2699 152.676 60.9915C152.377 60.7131 152.018 60.5739 151.598 60.5739C150.967 60.5739 150.474 60.8849 150.119 61.5071C149.764 62.1264 149.586 63.0028 149.586 64.1364C149.586 64.892 149.666 65.5341 149.825 66.0625C149.984 66.5909 150.213 66.9929 150.511 67.2685C150.812 67.544 151.174 67.6818 151.598 67.6818ZM156.404 68.5V59.7727H157.41V62.9943H157.495C157.569 62.8807 157.672 62.7358 157.802 62.5597C157.936 62.3807 158.126 62.2216 158.373 62.0824C158.623 61.9403 158.961 61.8693 159.387 61.8693C159.939 61.8693 160.424 62.0071 160.845 62.2827C161.265 62.5582 161.593 62.9489 161.829 63.4545C162.065 63.9602 162.183 64.5568 162.183 65.2443C162.183 65.9375 162.065 66.5384 161.829 67.0469C161.593 67.5526 161.267 67.9446 160.849 68.223C160.431 68.4986 159.95 68.6364 159.404 68.6364C158.984 68.6364 158.647 68.5668 158.395 68.4276C158.142 68.2855 157.947 68.125 157.811 67.946C157.674 67.7642 157.569 67.6136 157.495 67.4943H157.376V68.5H156.404ZM157.393 65.2273C157.393 65.7216 157.466 66.1577 157.61 66.5355C157.755 66.9105 157.967 67.2045 158.245 67.4176C158.524 67.6278 158.865 67.733 159.268 67.733C159.689 67.733 160.039 67.6222 160.321 67.4006C160.605 67.1761 160.818 66.875 160.96 66.4972C161.105 66.1165 161.177 65.6932 161.177 65.2273C161.177 64.767 161.106 64.3523 160.964 63.983C160.825 63.6108 160.613 63.3168 160.329 63.1009C160.048 62.8821 159.694 62.7727 159.268 62.7727C158.859 62.7727 158.515 62.8764 158.237 63.0838C157.958 63.2884 157.748 63.5753 157.606 63.9446C157.464 64.3111 157.393 64.7386 157.393 65.2273Z" fill="#242424"/>
<rect width="24" height="24" transform="translate(168 52)" fill="#BDBDBD"/>
<path d="M170.92 68.5V61.9545H171.892V62.9432H171.96C172.08 62.6193 172.295 62.3565 172.608 62.1548C172.92 61.9531 173.273 61.8523 173.665 61.8523C173.739 61.8523 173.831 61.8537 173.942 61.8565C174.053 61.8594 174.136 61.8636 174.193 61.8693V62.892C174.159 62.8835 174.081 62.8707 173.959 62.8537C173.839 62.8338 173.713 62.8239 173.58 62.8239C173.261 62.8239 172.977 62.8906 172.727 63.0241C172.48 63.1548 172.284 63.3366 172.139 63.5696C171.997 63.7997 171.926 64.0625 171.926 64.358V68.5H170.92ZM178.215 68.6193C177.573 68.6193 177.026 68.4446 176.574 68.0952C176.123 67.7429 175.777 67.233 175.539 66.5653C175.3 65.8949 175.181 65.0852 175.181 64.1364C175.181 63.1932 175.3 62.3878 175.539 61.7202C175.78 61.0497 176.127 60.5384 176.578 60.1861C177.033 59.831 177.578 59.6534 178.215 59.6534C178.851 59.6534 179.395 59.831 179.847 60.1861C180.301 60.5384 180.648 61.0497 180.887 61.7202C181.128 62.3878 181.249 63.1932 181.249 64.1364C181.249 65.0852 181.13 65.8949 180.891 66.5653C180.652 67.233 180.307 67.7429 179.855 68.0952C179.404 68.4446 178.857 68.6193 178.215 68.6193ZM178.215 67.6818C178.851 67.6818 179.346 67.375 179.698 66.7614C180.05 66.1477 180.226 65.2727 180.226 64.1364C180.226 63.3807 180.145 62.7372 179.983 62.206C179.824 61.6747 179.594 61.2699 179.293 60.9915C178.995 60.7131 178.635 60.5739 178.215 60.5739C177.584 60.5739 177.091 60.8849 176.736 61.5071C176.381 62.1264 176.203 63.0028 176.203 64.1364C176.203 64.892 176.283 65.5341 176.442 66.0625C176.601 66.5909 176.83 66.9929 177.128 67.2685C177.429 67.544 177.792 67.6818 178.215 67.6818ZM183.022 68.5V59.7727H184.027V62.9943H184.113C184.186 62.8807 184.289 62.7358 184.419 62.5597C184.553 62.3807 184.743 62.2216 184.99 62.0824C185.24 61.9403 185.578 61.8693 186.005 61.8693C186.556 61.8693 187.042 62.0071 187.462 62.2827C187.882 62.5582 188.211 62.9489 188.446 63.4545C188.682 63.9602 188.8 64.5568 188.8 65.2443C188.8 65.9375 188.682 66.5384 188.446 67.0469C188.211 67.5526 187.884 67.9446 187.466 68.223C187.049 68.4986 186.567 68.6364 186.022 68.6364C185.601 68.6364 185.265 68.5668 185.012 68.4276C184.759 68.2855 184.564 68.125 184.428 67.946C184.292 67.7642 184.186 67.6136 184.113 67.4943H183.993V68.5H183.022ZM184.01 65.2273C184.01 65.7216 184.083 66.1577 184.228 66.5355C184.373 66.9105 184.584 67.2045 184.863 67.4176C185.141 67.6278 185.482 67.733 185.885 67.733C186.306 67.733 186.657 67.6222 186.938 67.4006C187.222 67.1761 187.435 66.875 187.577 66.4972C187.722 66.1165 187.794 65.6932 187.794 65.2273C187.794 64.767 187.723 64.3523 187.581 63.983C187.442 63.6108 187.23 63.3168 186.946 63.1009C186.665 62.8821 186.311 62.7727 185.885 62.7727C185.476 62.7727 185.132 62.8764 184.854 63.0838C184.576 63.2884 184.365 63.5753 184.223 63.9446C184.081 64.3111 184.01 64.7386 184.01 65.2273Z" fill="#242424"/>
<rect width="24" height="24" transform="translate(194 52)" fill="#BDBDBD"/>
<path d="M197.92 68.5V61.9545H198.892V62.9432H198.96C199.08 62.6193 199.295 62.3565 199.608 62.1548C199.92 61.9531 200.273 61.8523 200.665 61.8523C200.739 61.8523 200.831 61.8537 200.942 61.8565C201.053 61.8594 201.136 61.8636 201.193 61.8693V62.892C201.159 62.8835 201.081 62.8707 200.959 62.8537C200.839 62.8338 200.713 62.8239 200.58 62.8239C200.261 62.8239 199.977 62.8906 199.727 63.0241C199.48 63.1548 199.284 63.3366 199.139 63.5696C198.997 63.7997 198.926 64.0625 198.926 64.358V68.5H197.92ZM205.436 59.7727V68.5H204.38V60.8807H204.328L202.198 62.2955V61.2216L204.38 59.7727H205.436ZM208.1 68.5V59.7727H209.105V62.9943H209.191C209.265 62.8807 209.367 62.7358 209.498 62.5597C209.631 62.3807 209.821 62.2216 210.069 62.0824C210.319 61.9403 210.657 61.8693 211.083 61.8693C211.634 61.8693 212.12 62.0071 212.54 62.2827C212.961 62.5582 213.289 62.9489 213.525 63.4545C213.76 63.9602 213.878 64.5568 213.878 65.2443C213.878 65.9375 213.76 66.5384 213.525 67.0469C213.289 67.5526 212.962 67.9446 212.544 68.223C212.127 68.4986 211.645 68.6364 211.1 68.6364C210.679 68.6364 210.343 68.5668 210.09 68.4276C209.837 68.2855 209.642 68.125 209.506 67.946C209.37 67.7642 209.265 67.6136 209.191 67.4943H209.071V68.5H208.1ZM209.088 65.2273C209.088 65.7216 209.161 66.1577 209.306 66.5355C209.451 66.9105 209.662 67.2045 209.941 67.4176C210.219 67.6278 210.56 67.733 210.963 67.733C211.384 67.733 211.735 67.6222 212.016 67.4006C212.3 67.1761 212.513 66.875 212.655 66.4972C212.8 66.1165 212.873 65.6932 212.873 65.2273C212.873 64.767 212.801 64.3523 212.659 63.983C212.52 63.6108 212.309 63.3168 212.025 63.1009C211.743 62.8821 211.39 62.7727 210.963 62.7727C210.554 62.7727 210.211 62.8764 209.932 63.0838C209.654 63.2884 209.444 63.5753 209.301 63.9446C209.159 64.3111 209.088 64.7386 209.088 65.2273Z" fill="#242424"/>
<rect width="24" height="24" transform="translate(220 52)" fill="#BDBDBD"/>
<path d="M222.92 68.5V61.9545H223.892V62.9432H223.96C224.08 62.6193 224.295 62.3565 224.608 62.1548C224.92 61.9531 225.273 61.8523 225.665 61.8523C225.739 61.8523 225.831 61.8537 225.942 61.8565C226.053 61.8594 226.136 61.8636 226.193 61.8693V62.892C226.159 62.8835 226.081 62.8707 225.959 62.8537C225.839 62.8338 225.713 62.8239 225.58 62.8239C225.261 62.8239 224.977 62.8906 224.727 63.0241C224.48 63.1548 224.284 63.3366 224.139 63.5696C223.997 63.7997 223.926 64.0625 223.926 64.358V68.5H222.92ZM227.368 68.5V67.733L230.249 64.5795C230.587 64.2102 230.865 63.8892 231.084 63.6165C231.303 63.3409 231.465 63.0824 231.57 62.8409C231.678 62.5966 231.732 62.3409 231.732 62.0739C231.732 61.767 231.658 61.5014 231.51 61.277C231.365 61.0526 231.167 60.8793 230.914 60.7571C230.661 60.6349 230.377 60.5739 230.061 60.5739C229.726 60.5739 229.434 60.6435 229.184 60.7827C228.936 60.919 228.745 61.1108 228.608 61.358C228.475 61.6051 228.408 61.8949 228.408 62.2273H227.402C227.402 61.7159 227.52 61.267 227.756 60.8807C227.992 60.4943 228.313 60.1932 228.719 59.9773C229.128 59.7614 229.587 59.6534 230.096 59.6534C230.607 59.6534 231.06 59.7614 231.455 59.9773C231.85 60.1932 232.159 60.4844 232.384 60.8509C232.608 61.2173 232.721 61.625 232.721 62.0739C232.721 62.3949 232.662 62.7088 232.546 63.0156C232.432 63.3196 232.233 63.6591 231.949 64.0341C231.668 64.4062 231.277 64.8608 230.777 65.3977L228.817 67.4943V67.5625H232.874V68.5H227.368ZM234.787 68.5V59.7727H235.793V62.9943H235.878C235.952 62.8807 236.054 62.7358 236.185 62.5597C236.319 62.3807 236.509 62.2216 236.756 62.0824C237.006 61.9403 237.344 61.8693 237.77 61.8693C238.321 61.8693 238.807 62.0071 239.228 62.2827C239.648 62.5582 239.976 62.9489 240.212 63.4545C240.448 63.9602 240.566 64.5568 240.566 65.2443C240.566 65.9375 240.448 66.5384 240.212 67.0469C239.976 67.5526 239.65 67.9446 239.232 68.223C238.814 68.4986 238.333 68.6364 237.787 68.6364C237.367 68.6364 237.03 68.5668 236.777 68.4276C236.525 68.2855 236.33 68.125 236.194 67.946C236.057 67.7642 235.952 67.6136 235.878 67.4943H235.759V68.5H234.787ZM235.776 65.2273C235.776 65.7216 235.848 66.1577 235.993 66.5355C236.138 66.9105 236.35 67.2045 236.628 67.4176C236.907 67.6278 237.248 67.733 237.651 67.733C238.071 67.733 238.422 67.6222 238.703 67.4006C238.988 67.1761 239.201 66.875 239.343 66.4972C239.488 66.1165 239.56 65.6932 239.56 65.2273C239.56 64.767 239.489 64.3523 239.347 63.983C239.208 63.6108 238.996 63.3168 238.712 63.1009C238.431 62.8821 238.077 62.7727 237.651 62.7727C237.242 62.7727 236.898 62.8764 236.62 63.0838C236.341 63.2884 236.131 63.5753 235.989 63.9446C235.847 64.3111 235.776 64.7386 235.776 65.2273Z" fill="#242424"/>
<rect width="24" height="24" transform="translate(246 52)" fill="#BDBDBD"/>
<path d="M248.92 68.5V61.9545H249.892V62.9432H249.96C250.08 62.6193 250.295 62.3565 250.608 62.1548C250.92 61.9531 251.273 61.8523 251.665 61.8523C251.739 61.8523 251.831 61.8537 251.942 61.8565C252.053 61.8594 252.136 61.8636 252.193 61.8693V62.892C252.159 62.8835 252.081 62.8707 251.959 62.8537C251.839 62.8338 251.713 62.8239 251.58 62.8239C251.261 62.8239 250.977 62.8906 250.727 63.0241C250.48 63.1548 250.284 63.3366 250.139 63.5696C249.997 63.7997 249.926 64.0625 249.926 64.358V68.5H248.92ZM256.317 68.6193C255.755 68.6193 255.253 68.5227 254.813 68.3295C254.375 68.1364 254.027 67.8679 253.769 67.5241C253.513 67.1776 253.374 66.7756 253.351 66.3182H254.425C254.448 66.5994 254.544 66.8423 254.715 67.0469C254.885 67.2486 255.108 67.4048 255.384 67.5156C255.659 67.6264 255.965 67.6818 256.3 67.6818C256.675 67.6818 257.007 67.6165 257.297 67.4858C257.587 67.3551 257.814 67.1733 257.979 66.9403C258.144 66.7074 258.226 66.4375 258.226 66.1307C258.226 65.8097 258.147 65.527 257.988 65.2827C257.828 65.0355 257.596 64.8423 257.289 64.7031C256.982 64.5639 256.607 64.4943 256.164 64.4943H255.465V63.5568H256.164C256.51 63.5568 256.814 63.4943 257.076 63.3693C257.34 63.2443 257.546 63.0682 257.694 62.8409C257.844 62.6136 257.919 62.3466 257.919 62.0398C257.919 61.7443 257.854 61.4872 257.723 61.2685C257.593 61.0497 257.408 60.8793 257.169 60.7571C256.934 60.6349 256.655 60.5739 256.334 60.5739C256.033 60.5739 255.749 60.6293 255.482 60.7401C255.218 60.848 255.002 61.0057 254.834 61.2131C254.667 61.4176 254.576 61.6648 254.561 61.9545H253.539C253.556 61.4972 253.694 61.0966 253.952 60.7528C254.211 60.4062 254.549 60.1364 254.966 59.9432C255.387 59.75 255.848 59.6534 256.351 59.6534C256.891 59.6534 257.354 59.7628 257.74 59.9815C258.127 60.1974 258.424 60.483 258.631 60.8381C258.838 61.1932 258.942 61.5767 258.942 61.9886C258.942 62.4801 258.813 62.8991 258.554 63.2457C258.299 63.5923 257.951 63.8324 257.51 63.9659V64.0341C258.061 64.125 258.492 64.3594 258.801 64.7372C259.111 65.1122 259.266 65.5767 259.266 66.1307C259.266 66.6051 259.137 67.0312 258.878 67.4091C258.623 67.7841 258.273 68.0795 257.83 68.2955C257.387 68.5114 256.882 68.6193 256.317 68.6193ZM261.162 68.5V59.7727H262.168V62.9943H262.253C262.327 62.8807 262.429 62.7358 262.56 62.5597C262.694 62.3807 262.884 62.2216 263.131 62.0824C263.381 61.9403 263.719 61.8693 264.145 61.8693C264.696 61.8693 265.182 62.0071 265.603 62.2827C266.023 62.5582 266.351 62.9489 266.587 63.4545C266.823 63.9602 266.941 64.5568 266.941 65.2443C266.941 65.9375 266.823 66.5384 266.587 67.0469C266.351 67.5526 266.025 67.9446 265.607 68.223C265.189 68.4986 264.708 68.6364 264.162 68.6364C263.742 68.6364 263.405 68.5668 263.152 68.4276C262.9 68.2855 262.705 68.125 262.569 67.946C262.432 67.7642 262.327 67.6136 262.253 67.4943H262.134V68.5H261.162ZM262.151 65.2273C262.151 65.7216 262.223 66.1577 262.368 66.5355C262.513 66.9105 262.725 67.2045 263.003 67.4176C263.282 67.6278 263.623 67.733 264.026 67.733C264.446 67.733 264.797 67.6222 265.078 67.4006C265.363 67.1761 265.576 66.875 265.718 66.4972C265.863 66.1165 265.935 65.6932 265.935 65.2273C265.935 64.767 265.864 64.3523 265.722 63.983C265.583 63.6108 265.371 63.3168 265.087 63.1009C264.806 62.8821 264.452 62.7727 264.026 62.7727C263.617 62.7727 263.273 62.8764 262.995 63.0838C262.716 63.2884 262.506 63.5753 262.364 63.9446C262.222 64.3111 262.151 64.7386 262.151 65.2273Z" fill="#242424"/>
<rect width="14" height="24" transform="translate(272 52)" fill="url(#paint4_linear_101_71)"/>
<rect width="10" height="24" transform="translate(286 52)" fill="url(#paint5_radial_101_71)"/>
<rect width="24" height="24" transform="translate(272 52)" fill="#BDBDBD"/>
<path d="M274.92 68.5V61.9545H275.892V62.9432H275.96C276.08 62.6193 276.295 62.3565 276.608 62.1548C276.92 61.9531 277.273 61.8523 277.665 61.8523C277.739 61.8523 277.831 61.8537 277.942 61.8565C278.053 61.8594 278.136 61.8636 278.193 61.8693V62.892C278.159 62.8835 278.081 62.8707 277.959 62.8537C277.839 62.8338 277.713 62.8239 277.58 62.8239C277.261 62.8239 276.977 62.8906 276.727 63.0241C276.48 63.1548 276.284 63.3366 276.139 63.5696C275.997 63.7997 275.926 64.0625 275.926 64.358V68.5H274.92ZM279.164 66.7102V65.8409L282.999 59.7727H283.63V61.1193H283.203L280.306 65.7045V65.7727H285.471V66.7102H279.164ZM283.272 68.5V66.446V66.0412V59.7727H284.277V68.5H283.272ZM287.221 68.5V59.7727H288.227V62.9943H288.312C288.386 62.8807 288.488 62.7358 288.619 62.5597C288.752 62.3807 288.942 62.2216 289.19 62.0824C289.44 61.9403 289.778 61.8693 290.204 61.8693C290.755 61.8693 291.241 62.0071 291.661 62.2827C292.082 62.5582 292.41 62.9489 292.646 63.4545C292.881 63.9602 292.999 64.5568 292.999 65.2443C292.999 65.9375 292.881 66.5384 292.646 67.0469C292.41 67.5526 292.083 67.9446 291.665 68.223C291.248 68.4986 290.766 68.6364 290.221 68.6364C289.8 68.6364 289.464 68.5668 289.211 68.4276C288.958 68.2855 288.763 68.125 288.627 67.946C288.491 67.7642 288.386 67.6136 288.312 67.4943H288.192V68.5H287.221ZM288.21 65.2273C288.21 65.7216 288.282 66.1577 288.427 66.5355C288.572 66.9105 288.783 67.2045 289.062 67.4176C289.34 67.6278 289.681 67.733 290.085 67.733C290.505 67.733 290.856 67.6222 291.137 67.4006C291.421 67.1761 291.634 66.875 291.776 66.4972C291.921 66.1165 291.994 65.6932 291.994 65.2273C291.994 64.767 291.923 64.3523 291.781 63.983C291.641 63.6108 291.43 63.3168 291.146 63.1009C290.864 62.8821 290.511 62.7727 290.085 62.7727C289.675 62.7727 289.332 62.8764 289.053 63.0838C288.775 63.2884 288.565 63.5753 288.423 63.9446C288.281 64.3111 288.21 64.7386 288.21 65.2273Z" fill="#242424"/>
<rect width="12" height="24" transform="translate(298 52)" fill="#BDBDBD"/>
<rect width="24" height="24" transform="translate(0 26)" fill="#BDBDBD"/>
<rect width="24" height="24" transform="translate(286 26)" fill="#BDBDBD"/>
<path d="M297.08 36.5V35.733C297.08 35.5 297.121 35.2528 297.203 34.9915C297.288 34.7273 297.411 34.473 297.57 34.2287C297.732 33.9815 297.926 33.767 298.153 33.5852L298.699 34.0284C298.52 34.2841 298.364 34.5511 298.23 34.8295C298.099 35.1051 298.034 35.4006 298.034 35.7159V36.5H297.08Z" fill="#242424"/>
<defs>
<radialGradient id="paint0_radial_101_71" cx="0" cy="0" r="1" gradientUnits="userSpaceOnUse" gradientTransform="translate(4 24) rotate(-90) scale(24 23.9103)">
<stop stop-color="#BDBDBD"/>
<stop offset="1" stop-color="#F0F0F0" stop-opacity="0"/>
</radialGradient>
<linearGradient id="paint1_linear_101_71" x1="10" y1="24" x2="10" y2="-3.57628e-07" gradientUnits="userSpaceOnUse">
<stop stop-color="#BDBDBD"/>
<stop offset="1" stop-color="#F0F0F0" stop-opacity="0"/>
</linearGradient>
<linearGradient id="paint2_linear_101_71" x1="0" y1="24" x2="0" y2="0" gradientUnits="userSpaceOnUse">
<stop stop-color="#BDBDBD"/>
<stop offset="1" stop-color="#F0F0F0" stop-opacity="0"/>
</linearGradient>
<radialGradient id="paint3_radial_101_71" cx="0" cy="0" r="1" gradientUnits="userSpaceOnUse" gradientTransform="translate(0 24) rotate(-90) scale(24 23.9901)">
<stop stop-color="#BDBDBD"/>
<stop offset="1" stop-color="#F0F0F0" stop-opacity="0"/>
</radialGradient>
<linearGradient id="paint4_linear_101_71" x1="0" y1="0" x2="0" y2="24" gradientUnits="userSpaceOnUse">
<stop stop-color="#BDBDBD"/>
<stop offset="1" stop-color="#F0F0F0" stop-opacity="0"/>
</linearGradient>
<radialGradient id="paint5_radial_101_71" cx="0" cy="0" r="1" gradientUnits="userSpaceOnUse" gradientTransform="rotate(90) scale(24 23.9715)">
<stop stop-color="#BDBDBD"/>
<stop offset="1" stop-color="#F0F0F0" stop-opacity="0"/>
</radialGradient>
</defs>
</svg>
